<svg xmlns="http://www.w3.org/2000/svg" xmlns:xlink="http://www.w3.org/1999/xlink" fill="none" viewBox="0 0 60 60">
  <path fill="url(#a)" fill-rule="evenodd" d="M2.176 45.804c-.62 1.053-1.318 2.275-1.91 3.249-.53.932-.245 2.133.64 2.702l12.41 7.949c.437.28.962.366 1.46.239a1.92 1.92 0 0 0 1.185-.915c.497-.864 1.136-1.987 1.833-3.19 4.917-8.444 9.862-7.411 18.779-2.98l12.306 6.09c.466.231 1.002.256 1.486.069s.874-.57 1.082-1.062l5.91-13.91c.417-.993-.008-2.151-.955-2.603a1472 1472 0 0 1-12.411-6.14C27.265 26.847 13.05 27.393 2.176 45.804" clip-rule="evenodd"/>
  <path fill="url(#b)" fill-rule="evenodd" d="M57.824 14.239c.62-1.053 1.318-2.276 1.91-3.25.53-.93.245-2.133-.64-2.702L46.684.34a1.85 1.85 0 0 0-1.498-.288 1.92 1.92 0 0 0-1.224.944c-.496.864-1.136 1.987-1.833 3.189-4.916 8.445-9.862 7.412-18.778 2.98l-12.268-6.06a1.84 1.84 0 0 0-1.486-.068c-.484.187-.874.57-1.082 1.062l-5.91 13.91c-.417.993.008 2.151.955 2.602 2.597 1.272 7.762 3.806 12.411 6.14 16.764 8.446 30.98 7.88 41.853-10.511z" clip-rule="evenodd"/>
  <defs>
    <linearGradient id="a" x1="57.022" x2="42.166" y1="63.807" y2="31.059" gradientUnits="userSpaceOnUse">
      <stop offset=".18" stop-color="#0052CC"/>
      <stop offset="1" stop-color="#2684FF"/>
    </linearGradient>
    <linearGradient id="b" x1="2.978" x2="17.857" y1="-3.774" y2="28.989" gradientUnits="userSpaceOnUse">
      <stop offset=".18" stop-color="#0052CC"/>
      <stop offset="1" stop-color="#2684FF"/>
    </linearGradient>
  </defs>
</svg>
