<svg xmlns="http://www.w3.org/2000/svg" xmlns:xlink="http://www.w3.org/1999/xlink" fill="none" viewBox="0 0 38 38">
  <g clip-path="url(#a)">
    <circle cx="19" cy="19" r="19" fill="#DDE1FF"/>
    <path fill="#5165F7" d="M24.067 15.51a1.3 1.3 0 0 0 .962-1.248v-.003a1.29 1.29 0 0 0-1.29-1.29h-.004a1.3 1.3 0 0 0-1.247.961 3.62 3.62 0 0 1-6.978 0 1.3 1.3 0 0 0-1.248-.961h-.003a1.29 1.29 0 0 0-1.29 1.29v.003a1.3 1.3 0 0 0 .961 1.248 3.62 3.62 0 0 1 0 6.979 1.3 1.3 0 0 0-.961 1.248v.003a1.29 1.29 0 0 0 1.29 1.29h.003a1.3 1.3 0 0 0 1.248-.962 3.62 3.62 0 0 1 6.978 0 1.3 1.3 0 0 0 1.247.962h.004a1.29 1.29 0 0 0 1.29-1.29v-.003a1.3 1.3 0 0 0-.962-1.248 3.619 3.619 0 0 1 0-6.979m-11.379-3.746a.28.28 0 0 0 .322.053 2.575 2.575 0 0 1 2.934.492.286.286 0 0 0 .397.009.28.28 0 0 0 .005-.402 3.14 3.14 0 0 0-3.585-.602.28.28 0 0 0-.073.45m-1.372.994a3.14 3.14 0 0 0 .59 3.578.29.29 0 0 0 .378.036.28.28 0 0 0 .03-.423 2.58 2.58 0 0 1-.496-2.941.282.282 0 0 0-.296-.402.28.28 0 0 0-.207.152zM24.99 26.183a2.575 2.575 0 0 1-2.936-.492.286.286 0 0 0-.395-.01.28.28 0 0 0-.005.403 3.14 3.14 0 0 0 3.584.602.28.28 0 0 0-.249-.503zm.69-4.525a.285.285 0 0 0 .009.396 2.575 2.575 0 0 1 .49 2.937.282.282 0 0 0 .419.35.3.3 0 0 0 .085-.1 3.14 3.14 0 0 0-.6-3.588.28.28 0 0 0-.403.005m.5-8.651a2.575 2.575 0 0 1-.491 2.937.285.285 0 0 0-.01.395.28.28 0 0 0 .403.006 3.14 3.14 0 0 0 .601-3.587.28.28 0 0 0-.503.25zm-4.126-.697a2.575 2.575 0 0 1 2.936-.492.282.282 0 0 0 .402-.297.28.28 0 0 0-.152-.206 3.14 3.14 0 0 0-3.586.601.28.28 0 0 0 .005.402.285.285 0 0 0 .395-.008m-6.109 13.38a2.58 2.58 0 0 1-2.936.492.282.282 0 0 0-.391.166.28.28 0 0 0 .142.337 3.14 3.14 0 0 0 3.586-.601.28.28 0 0 0-.005-.402.285.285 0 0 0-.396.009zm-4.127-.698a2.58 2.58 0 0 1 .492-2.936.286.286 0 0 0 .008-.396.28.28 0 0 0-.402-.005 3.14 3.14 0 0 0-.6 3.587.28.28 0 0 0 .502-.25"/>
  </g>
  <defs>
    <clipPath id="a">
      <path fill="#fff" d="M0 0h38v38H0z"/>
    </clipPath>
  </defs>
</svg>
