<svg xmlns="http://www.w3.org/2000/svg" xmlns:xlink="http://www.w3.org/1999/xlink" fill="none" viewBox="0 0 160 40">
  <g fill="#000" clip-path="url(#a)">
    <path fill-rule="evenodd" d="M27.841 32.718c-2.406 2.406-6.09 2.406-12.718 2.406-6.627 0-10.31-.001-12.718-2.406C0 30.312 0 26.628 0 20 0 13.374 0 9.688 2.405 7.283c2.407-2.407 6.09-2.407 12.718-2.407s10.312 0 12.718 2.407C30.25 9.69 30.25 13.373 30.25 20s0 10.312-2.408 12.718zM16.57 18.058l-9.13-.019-.002 2.248 8.617.017-.507 2.244-8.11-.017v2.247l7.603.016h-.013c-.294 1.133.535 2.257 1.673 2.257h1.579l.872-2.257H15.04l.508-2.244 5.167.01.802-2.246-5.45-.01.51-2.247 7.377-.035.915-2.238-7.783.026zm-.813-4.502-8.317-.018-.002 2.248 9.647.016.087-.391c.215-.947-.475-1.855-1.415-1.855" clip-rule="evenodd"/>
    <path d="M53.77 28.744h3.867l.374-2.312h.703c.562 1.7 2.084 2.548 3.655 2.548 3.256 0 5.248-2.123 5.248-6.65 0-3.986-1.64-6.65-5.156-6.65-1.685 0-3.185 1.013-3.747 2.521h-.703l.234-3.537v-3.608H53.77zm4.475-6.014v-.778c0-1.652.914-2.665 2.507-2.665 1.383 0 2.32.614 2.32 2.193v1.722c0 1.297-.633 2.17-2.297 2.17-1.662 0-2.53-1.015-2.53-2.642m10.543-.378c0 3.986 2.6 6.628 6.559 6.628 3.282 0 5.693-1.746 6.022-4.433h-4.264c-.117.73-.867 1.154-1.898 1.154-1.054 0-1.922-.659-1.922-1.65v-.66h7.943c.141-.495.187-1.18.187-1.84 0-3.82-2.74-5.872-6.208-5.872-3.608 0-6.42 2.405-6.42 6.673zm4.497-1.65v-.259c0-.85.796-1.463 1.875-1.463s1.782.614 1.782 1.463v.258zm18.562-4.859c-1.429 0-2.53.826-2.882 2.877h-.703l-.539-2.806h-5.881v3.609h1.946v9.22h4.475V23.51c0-2.689 1.663-3.444 3.56-3.444.259 0 .517.024.797.048v-4.199a3.6 3.6 0 0 0-.773-.07zm1.962.071v16.769h4.475v-2.689l-.235-3.538h.704c.562 1.51 2.062 2.524 3.749 2.524 3.513 0 5.154-2.665 5.154-6.65 0-4.528-1.992-6.65-5.25-6.65-1.568 0-3.091.848-3.653 2.545h-.704l-.375-2.31zm4.475 6.014c0-1.627.867-2.64 2.531-2.64 1.663 0 2.295.872 2.295 2.168v1.722c0 1.58-.936 2.194-2.319 2.194-1.593 0-2.507-1.015-2.507-2.666zm14.929 3.326V11.056h-4.452v14.27c0 2.05.821 3.42 3.397 3.42h3.96v-3.49h-2.905zm3.729-.12c0 2.36 1.709 3.846 4.333 3.846 2.178 0 3.702-1.015 4.194-2.524h.631v2.288h4.688V25.44h-1.619v-5.115c0-2.782-1.592-4.646-5.669-4.646-3.748 0-5.926 1.627-5.787 4.787h4.1c-.071-1.062.563-1.415 1.477-1.415.866 0 1.427.353 1.427 1.25v.896l-3.559.236c-2.507.166-4.218 1.344-4.218 3.703zm4.496-.61c0-.496.353-.968 1.15-1.015l2.131-.143v1.486c-.352.543-1.055.896-1.922.896-.937 0-1.357-.4-1.357-.943zm10.706 4.22h4.476V21.88c0-1.508.749-2.57 2.248-2.57 1.266 0 1.969.732 1.969 2.312v7.122h4.496V20.04c0-2.617-1.427-4.363-3.981-4.363-1.968 0-3.374.92-4.03 2.523h-.702l-.54-2.287h-3.936zm14.627-6.392c0 3.986 2.602 6.628 6.562 6.628 3.278 0 5.693-1.746 6.021-4.433h-4.265c-.117.73-.866 1.154-1.897 1.154-1.055 0-1.921-.659-1.921-1.65v-.66h7.943c.14-.495.187-1.18.187-1.84 0-3.82-2.742-5.872-6.209-5.872-3.608 0-6.421 2.405-6.421 6.673m4.5-1.65v-.259c0-.85.797-1.463 1.874-1.463 1.078 0 1.781.614 1.781 1.463v.258zM43.436 15.915h8.83v12.828h-4.495V19.52h-4.335v9.221h-4.497V19.52h-2.322v-3.605h2.322V14.81q0-.449.01-.656a6 6 0 0 1 .07-.541q.069-.323.206-.691.676-1.867 3.443-1.866h3.649v3.489h-2.881zm4.357-1.37v-3.49h4.473v3.49z"/>
  </g>
  <defs>
    <clipPath id="a">
      <path fill="#fff" d="M0 0h160v40H0z"/>
    </clipPath>
  </defs>
</svg>
