<svg xmlns="http://www.w3.org/2000/svg" xmlns:xlink="http://www.w3.org/1999/xlink" fill="none" viewBox="0 0 140 28">
  <g clip-path="url(#a)">
    <path fill="#000" d="M135.739 4.692H140v18.549h-4.479l-6.664-11.928V23.24h-4.288V4.692h4.479l6.691 12.065zM107.69 4.2c6.145 0 9.778 4.65 9.778 9.74 0 5.088-3.66 9.738-9.778 9.738-6.172 0-9.805-4.65-9.805-9.739 0-5.06 3.66-9.739 9.805-9.739m5.436 9.767c0-3.037-2.077-5.882-5.409-5.882-3.386 0-5.407 2.845-5.407 5.881s2.048 5.882 5.407 5.882c3.332-.027 5.409-2.845 5.409-5.881m-74.59-5.581V4.692H51.21v3.694h-4.206v14.827h-4.288V8.386zm45.393 3.966h7.02v3.365h-6.992v4.077h6.991v3.447h-11.28V4.692h11.28V8.14h-6.991v4.213h-.028zM65.63 4.692c4.097 0 6.746 3.092 6.746 6.703 0 2.599-1.365 4.897-3.687 5.991l3.714 5.855h-4.97l-3.278-5.143h-2.02v5.143h-4.289V4.692zm2.404 6.703c0-1.724-1.175-3.2-2.95-3.2H62.16v6.4h2.923c1.802 0 2.95-1.477 2.95-3.2zM30.152 20.97H23.57l-.71 2.243h-4.561l6.61-18.548h3.932l6.692 18.548H30.89zM26.875 9.972l-2.267 7.633h4.506zM7.757 4.692c4.096 0 6.745 3.092 6.745 6.703s-2.649 6.703-6.745 6.703h-3.47v5.143H0V4.692zm2.43 6.703c0-1.724-1.174-3.2-2.95-3.2h-2.95v6.4H7.21c1.803 0 2.977-1.477 2.977-3.2"/>
  </g>
  <defs>
    <clipPath id="a">
      <path fill="#fff" d="M0 0h140v28H0z"/>
    </clipPath>
  </defs>
</svg>
