<svg xmlns="http://www.w3.org/2000/svg" xmlns:xlink="http://www.w3.org/1999/xlink" fill="none" viewBox="0 0 160 40">
  <g fill="#000" clip-path="url(#a)">
    <path d="m44 10-.058.019v8.514h-8.076v-8.514l-.057-.02a8.6 8.6 0 0 0-3.562 0l-.057.02v19.58l.057.02a9.3 9.3 0 0 0 1.771.19c.59 0 1.181-.057 1.79-.19l.058-.02v-7.942h8.076v7.942l.057.02a8.6 8.6 0 0 0 3.562 0l.057-.02V10.02l-.057-.02a9.3 9.3 0 0 0-3.562 0zm12.513 5.505c-4.228 0-6.742 2.666-6.742 7.142 0 2.324.533 4.172 1.6 5.448 1.161 1.39 2.895 2.095 5.2 2.095 3.904 0 5.904-2.324 6.152-4.629v-.057l-.057-.019c-.991-.323-1.905-.4-2.99-.247h-.039v.038c-.229 1.371-1.371 2.19-3.029 2.19-2.323 0-3.466-1.276-3.504-3.905h9.828v-.057c.286-2.59-.228-4.685-1.486-6.114-1.161-1.219-2.857-1.885-4.933-1.885m-.038 2.533c.972 0 1.79.305 2.343.895.571.61.857 1.524.8 2.61h-6.514c.057-2.229 1.295-3.505 3.371-3.505M65.313 10l-.057.019v19.58l.057.02c.552.114 1.105.19 1.676.19.553 0 1.124-.057 1.676-.19l.058-.02V10.02l-.058-.02c-1.104-.247-2.228-.228-3.352 0m13.047 5.505c-1.466 0-3.009.57-4.476 1.657l-.21-1.029-.037-.019c-.838-.248-1.524-.248-2.343 0l-.038.02v19.484l.057.02c.552.114 1.105.19 1.676.19.572 0 1.124-.057 1.676-.19l.057-.02v-6.514c1.162.743 2.4 1.086 3.79 1.086 3.848 0 6.153-2.724 6.153-7.314-.019-4.667-2.305-7.371-6.305-7.371m-3.695 3.866c1.029-.705 1.981-1.028 3.01-1.028 2.343 0 3.619 1.619 3.619 4.59 0 2.914-1.257 4.457-3.657 4.457-1.029 0-2-.324-2.972-1.01zm24.685-.305a37 37 0 0 0-1.637-.59c-2.667-.953-4.267-1.524-4.305-2.971-.02-.667.19-1.239.647-1.715.667-.685 1.79-1.047 3.163-1.047 1.352 0 2.4.362 3.028 1.028.533.572.762 1.353.704 2.324v.057l.058.02c1.162.228 2.323.209 3.581-.077l.057-.02v-.056c.076-1.638-.42-3.067-1.429-4.133-1.257-1.334-3.276-2.038-5.828-2.058h-.076c-4.743 0-7.6 2.115-7.639 5.658-.019 3.523 3.22 4.704 5.162 5.39l.286.114c.648.229 1.257.438 1.79.629 2.629.914 4.21 1.466 4.267 2.857q.029 1.086-.629 1.771c-.628.648-1.732.972-3.2.953-1.619 0-2.856-.42-3.561-1.181-.515-.572-.724-1.296-.648-2.172v-.057l-.057-.019a8.6 8.6 0 0 0-3.562.057l-.038.02v.056c-.095 1.581.38 2.99 1.41 4.076 1.37 1.467 3.619 2.229 6.514 2.21 2.838 0 7.504-.762 7.542-5.714-.056-3.295-2.876-4.362-5.6-5.41m14.115-.723c2.342 0 2.895 1.523 3.009 2.419v.057h.057a7.1 7.1 0 0 0 3.105-.19l.057-.02v-.057c-.095-1.371-.686-2.61-1.657-3.505-1.105-1.01-2.686-1.562-4.552-1.562-4.458 0-6.914 2.61-6.914 7.353 0 4.723 2.437 7.333 6.856 7.333 1.905 0 3.505-.552 4.629-1.6a5.2 5.2 0 0 0 1.619-3.333v-.057l-.057-.02c-.934-.323-1.962-.38-3.086-.19h-.038v.038c-.305 2.133-2.381 2.286-3.009 2.286-2.4 0-3.524-1.429-3.524-4.495-.019-3.029 1.105-4.457 3.505-4.457m14.666-2.838c-4.381 0-6.8 2.609-6.8 7.352 0 4.724 2.419 7.333 6.8 7.333s6.8-2.61 6.8-7.333c0-4.743-2.419-7.352-6.8-7.352m3.486 7.37c0 3.03-1.143 4.496-3.486 4.496s-3.485-1.467-3.485-4.495c0-3.086 1.104-4.533 3.485-4.533 2.343 0 3.486 1.485 3.486 4.533zm14.285-6.742-.057.02v9.751c-1.105.953-2.115 1.372-3.276 1.372-1.639 0-2.343-.934-2.343-3.143v-8l-.057-.019a7.1 7.1 0 0 0-3.352 0l-.058.02v8.78c0 3.333 1.791 5.257 4.934 5.257 1.676 0 3.142-.648 4.723-2.095l.324 1.523.038.02c.8.21 1.638.21 2.438 0l.058-.02V16.133l-.058-.019a6.7 6.7 0 0 0-3.314.02zm13.924 10.857-.02-.057-.056.019c-1.334.305-2.115.286-2.572-.076-.381-.305-.552-.838-.552-1.676v-6.248h2.704l.02-.057a6.85 6.85 0 0 0 0-2.78l-.02-.058h-2.704v-3.695l-.057-.02a7.6 7.6 0 0 0-3.334 0l-.057.02.019 3.695h-1.714l-.019.057a6.2 6.2 0 0 0 0 2.781l.019.057h1.714l.019 6c0 1.676.095 3.371 1.258 4.343.628.514 1.542.78 2.723.78.724 0 1.562-.095 2.533-.285h.039l.018-.038a5.03 5.03 0 0 0 .039-2.762M1.886 22.514l9.257-9.257a6.52 6.52 0 0 0 1.942-4.648c0-1.79-.723-3.428-1.885-4.609l-9.257 9.257A6.52 6.52 0 0 0 0 17.904c0 1.81.724 3.429 1.886 4.61m22.418-5.41-9.257 9.258a6.52 6.52 0 0 0-1.943 4.647c0 1.79.724 3.428 1.886 4.61l9.257-9.258a6.52 6.52 0 0 0 1.943-4.647c0-1.81-.724-3.429-1.886-4.61m-.057-3.828a6.52 6.52 0 0 0 1.943-4.648c0-1.79-.724-3.428-1.886-4.609L1.943 26.362a6.57 6.57 0 0 0-.057 9.276z"/>
  </g>
  <defs>
    <clipPath id="a">
      <path fill="#fff" d="M0 0h160v40H0z"/>
    </clipPath>
  </defs>
</svg>
