<svg xmlns="http://www.w3.org/2000/svg" fill="none" viewBox="0 0 50 50">
  <path fill="#1967D2" d="M46.231 0h-8.128v11.778h11.894V3.321c.003 0-.588-3-3.766-3.321m-8.125 49.945V50L50 38.222h-.107z"/>
  <path fill="#FBBC05" d="M49.999 38.221v-.105l-.106.105zM50 11.778H38.106v26.338H50z"/>
  <path fill="#EA4335" d="M49.893 38.222H38.106v11.723zm-11.787-.001h11.787l.107-.105H38.106z"/>
  <path fill="#34A853" d="M38.077 49.974h.029v-.028z"/>
  <path fill="#34A853" d="M11.626 38.116v11.858h26.451l.03-11.858z"/>
  <path fill="#34A853" d="M38.106 38.222v-.106l-.029 11.858.029-.029z"/>
  <path fill="#188038" d="M0 38.116v8.245c.107 2.675 3 3.613 3 3.613h8.626V38.116z"/>
  <path fill="#4285F4" d="M11.626 11.778h26.48V0H3.336S.213.321 0 3.64v34.476h11.626z"/>
  <path fill="#4285F4" d="M20.289 32.785q-.909 0-1.753-.237a5.2 5.2 0 0 1-1.514-.71 5.5 5.5 0 0 1-1.233-1.227 5.6 5.6 0 0 1-.801-1.7l2.661-1.054q.282 1.075.952 1.635.672.538 1.688.538.454 0 .865-.129.41-.15.715-.409a1.9 1.9 0 0 0 .476-.602q.195-.366.194-.818 0-.947-.714-1.485-.692-.538-1.925-.538h-1.277v-2.56h1.168q.433 0 .844-.108t.714-.323q.325-.237.498-.581a1.76 1.76 0 0 0 .195-.84q0-.731-.52-1.183-.52-.474-1.406-.474-.952 0-1.471.517a2.7 2.7 0 0 0-.693 1.119l-2.596-1.055a4.8 4.8 0 0 1 .584-1.097q.39-.581.974-1.033a4.9 4.9 0 0 1 1.406-.753q.8-.302 1.84-.302 1.06 0 1.925.302.887.3 1.514.84.628.516.974 1.247.345.71.346 1.55 0 .645-.173 1.162a3.6 3.6 0 0 1-.411.925 3.2 3.2 0 0 1-1.277 1.162v.172q1.04.409 1.71 1.313.692.904.692 2.281 0 .969-.368 1.786a4.15 4.15 0 0 1-1.06 1.4q-.67.601-1.623.924-.951.345-2.12.345m10.338-.345V21.035l-2.618 1.097-1.038-2.388 4.349-2.023h2.142v14.72h-2.835z"/>
</svg>
