<svg xmlns="http://www.w3.org/2000/svg" fill="none" viewBox="0 0 55 50">
  <path fill="#34A853" d="M27.505 16.127 18.853.858A2.7 2.7 0 0 1 19.8.245c-2.551.84-3.722 3.705-3.722 3.705L.273 31.837a8.2 8.2 0 0 0-.257 2.359h17.252z"/>
  <path fill="#FBBC05" d="m27.505 16.127 10.237 18.069h17.252a8.2 8.2 0 0 0-.257-2.36L38.931 3.95S37.757 1.084 35.209.245c.327.129.66.32.948.613l-8.652 15.27z"/>
  <path fill="#188038" d="M27.505 16.128 36.157.858a2.7 2.7 0 0 0-.948-.613 4.7 4.7 0 0 0-1.22-.226H21.02a4.5 4.5 0 0 0-1.22.226c-.327.13-.661.321-.948.614l8.652 15.269z"/>
  <path fill="#4285F4" d="M17.271 34.196 8.718 49.292s-.284-.138-.67-.425C9.26 49.803 10.44 50 10.44 50h33.593c1.853 0 2.24-.708 2.24-.708l.015-.01-8.547-15.086z"/>
  <path fill="#1967D2" d="M17.272 34.196H.02c.086 2.05.976 3.249.976 3.249l.649 1.126c.046.066.074.103.074.103l1.411 2.479 3.17 5.516c.092.223.2.428.315.623.043.066.083.138.13.201l.037.057c.392.553.83.981 1.27 1.318.385.289.67.424.67.424z"/>
  <path fill="#EA4335" d="M37.742 34.196h17.252c-.087 2.05-.977 3.249-.977 3.249l-.648 1.126-.074.103-1.412 2.479-3.17 5.516c-.092.223-.2.428-.314.623-.044.066-.084.138-.13.201a6.1 6.1 0 0 1-1.307 1.374c-.386.29-.67.425-.67.425z"/>
</svg>
