<svg xmlns="http://www.w3.org/2000/svg" xmlns:xlink="http://www.w3.org/1999/xlink" fill="none" viewBox="0 0 32 32">
  <g clip-path="url(#a)" opacity=".14">
    <path fill="#000" fill-rule="evenodd" d="M15.961 0h.078v1.961a14 14 0 0 1 5.243 1.028V0h.077v3.02a14 14 0 0 1 3.754 2.3h1.489V0h.078v5.32H32v.078h-5.32v1.49a14 14 0 0 1 2.3 3.753H32v.077h-2.989a14 14 0 0 1 1.028 5.243H32v.078h-1.961a14 14 0 0 1-1.027 5.242H32v.078h-3.02a14 14 0 0 1-2.3 3.754v1.489H32v.077h-5.32V32h-.078v-5.32h-1.489a14 14 0 0 1-3.754 2.3V32h-.077v-2.988a14 14 0 0 1-5.243 1.027V32h-.078v-1.961a14 14 0 0 1-5.243-1.027V32h-.077v-3.02a14 14 0 0 1-3.754-2.3H5.398V32H5.32v-5.32H0v-.078h5.32v-1.49a14 14 0 0 1-2.3-3.753H0v-.078h2.988a14 14 0 0 1-1.027-5.242H0v-.078h1.961c.005-1.854.37-3.624 1.028-5.243H0v-.077h3.02a14 14 0 0 1 2.3-3.754V5.398H0V5.32h5.32V0h.078v5.32h1.49a14 14 0 0 1 3.753-2.3V0h.077v2.989a14 14 0 0 1 5.243-1.028zm0 2.039a13.9 13.9 0 0 0-5.243 1.033V5.32h5.243zm-5.32 1.065A14 14 0 0 0 7.007 5.32h3.634zM6.797 5.398H5.398v1.4q.65-.75 1.4-1.4zM5.398 6.916q.701-.817 1.518-1.518h3.725v5.243H5.398zm-.078.091a14 14 0 0 0-2.215 3.634H5.32zm-2.248 3.711a13.9 13.9 0 0 0-1.033 5.243H5.32v-5.243zm-1.033 5.32a13.9 13.9 0 0 0 1.033 5.243H5.32V16.04H2.04zm1.065 5.32a14 14 0 0 0 2.216 3.635v-3.634H3.104zm2.294 3.845v1.399h1.399q-.749-.65-1.399-1.4zm1.517 1.399a14 14 0 0 1-1.517-1.518V21.36h5.243v5.243H6.915zm.092.077a14 14 0 0 0 3.634 2.216V26.68H7.007zm3.711 2.249a13.9 13.9 0 0 0 5.243 1.033V26.68h-5.243zm5.32 1.033a13.9 13.9 0 0 0 5.244-1.033v-2.249h-5.243zm5.321-1.066a14 14 0 0 0 3.634-2.216H21.36zm3.844-2.293h1.399v-1.4q-.65.75-1.399 1.4m1.399-1.518a14 14 0 0 1-1.518 1.518H21.36v-5.243h5.243v3.725zm.078-.091a14 14 0 0 0 2.216-3.634H26.68zm2.248-3.712a13.9 13.9 0 0 0 1.033-5.242H26.68v5.242zm1.033-5.32a13.9 13.9 0 0 0-1.034-5.243H26.68v5.243zm-1.066-5.32a14 14 0 0 0-2.215-3.634v3.634zm-2.293-3.844V5.398h-1.4q.75.65 1.4 1.4zm-1.518-1.399q.817.7 1.518 1.518v3.725h-5.243V5.398zm-.091-.078a14 14 0 0 0-3.634-2.216V5.32zm-3.711-2.248a13.9 13.9 0 0 0-5.243-1.033V5.32h5.243zM10.718 5.398h5.243v5.243h-5.243zm10.564 0h-5.243v5.243h5.243zM10.64 21.281H5.398V16.04h5.243v5.242zm.077.078v5.243h5.243v-5.243zm5.243-.078h-5.243V16.04h5.243v5.242zm.078.078v5.243h5.243v-5.243zm5.243-.078h-5.243V16.04h5.243v5.242zm5.32 0h-5.243V16.04h5.243v5.242zM10.718 10.718h5.243v5.243h-5.243zm-5.32 0h5.243v5.243H5.398zm15.884 0h-5.243v5.243h5.243zm.077 5.243v-5.243h5.243v5.243z" clip-rule="evenodd"/>
  </g>
  <defs>
    <clipPath id="a">
      <path fill="#fff" d="M0 0h32v32H0z"/>
    </clipPath>
  </defs>
</svg>
