<svg xmlns="http://www.w3.org/2000/svg" xmlns:xlink="http://www.w3.org/1999/xlink" fill="none" viewBox="0 0 48 48">
  <g clip-path="url(#a)" opacity=".14">
    <path fill="#000" fill-rule="evenodd" d="M23.942 0h.116v2.942c2.781.007 5.436.554 7.864 1.54V0h.117v4.53a21 21 0 0 1 5.63 3.45h2.234V0h.116v7.98H48v.117h-7.98v2.234a21 21 0 0 1 3.45 5.63H48v.116h-4.483a21 21 0 0 1 1.541 7.864H48v.117h-2.942a21 21 0 0 1-1.54 7.864H48v.116h-4.53a21 21 0 0 1-3.45 5.631v2.233H48v.117h-7.98V48h-.117v-7.981H37.67a21 21 0 0 1-5.631 3.45V48h-.117v-4.483a21 21 0 0 1-7.864 1.541V48h-.116v-2.942a21 21 0 0 1-7.864-1.54V48h-.117v-4.53a21 21 0 0 1-5.63-3.451H8.096V48H7.98v-7.981H0v-.117h7.98V37.67a21 21 0 0 1-3.45-5.63H0v-.117h4.483a21 21 0 0 1-1.541-7.864H0v-.117h2.942a21 21 0 0 1 1.54-7.864H0v-.116h4.53a21 21 0 0 1 3.45-5.63V8.097H0V7.98h7.98V0h.117v7.98h2.234a21 21 0 0 1 5.63-3.45V0h.117v4.483a21 21 0 0 1 7.864-1.541zm0 3.058a20.9 20.9 0 0 0-7.864 1.55V7.98h7.864zm-7.98 1.599a21 21 0 0 0-5.45 3.323h5.45zm-5.766 3.44H8.097v2.099q.976-1.124 2.099-2.099m-2.099 2.277a21 21 0 0 1 2.277-2.277h5.587v7.864H8.097zm-.116.137a21 21 0 0 0-3.324 5.45H7.98zm-3.372 5.566a20.9 20.9 0 0 0-1.55 7.864H7.98v-7.864zm-1.55 7.98a20.9 20.9 0 0 0 1.55 7.865H7.98v-7.864H3.058zm1.598 7.981A21 21 0 0 0 7.98 37.49v-5.45H4.657zm3.44 5.766v2.098h2.098a21 21 0 0 1-2.098-2.098m2.276 2.098a21 21 0 0 1-2.276-2.276v-5.588h7.864v7.864zm.137.117a21 21 0 0 0 5.451 3.324V40.02h-5.45zm5.568 3.372a20.9 20.9 0 0 0 7.864 1.55V40.02h-7.864v3.372zm7.98 1.55a20.9 20.9 0 0 0 7.864-1.55V40.02h-7.864v4.923zm7.98-1.598a21 21 0 0 0 5.452-3.324h-5.451zm5.767-3.44h2.098v-2.099q-.976 1.123-2.098 2.098zm2.098-2.277q-1.051 1.226-2.276 2.276h-5.588v-7.864h7.864zm.116-.137a21 21 0 0 0 3.325-5.45h-3.325zm3.373-5.567a20.9 20.9 0 0 0 1.55-7.864h-4.923v7.864zm1.55-7.98a20.9 20.9 0 0 0-1.55-7.865h-3.373v7.864h4.923zm-1.599-7.981a21 21 0 0 0-3.324-5.45v5.45zm-3.44-5.765V8.097h-2.099q1.124.976 2.099 2.099m-2.277-2.099a21 21 0 0 1 2.277 2.277v5.587h-7.864V8.097zm-.137-.117a21 21 0 0 0-5.45-3.323V7.98zm-5.567-3.37a20.9 20.9 0 0 0-7.864-1.55v4.92h7.864zM16.078 8.097h7.864v7.864h-7.864zm15.844 0h-7.864v7.864h7.864zm-15.96 23.825H8.096v-7.864h7.864v7.864zm.116.116v7.864h7.864v-7.864zm7.864-.116h-7.864v-7.864h7.864zm.116.116v7.864h7.864v-7.864zm7.864-.116h-7.864v-7.864h7.864zm7.98 0H32.04v-7.864h7.864v7.864zM16.079 16.077h7.864v7.864h-7.864zm-7.98 0h7.863v7.864H8.097v-7.864zm23.824 0h-7.864v7.864h7.864zm.117 7.864v-7.864h7.864v7.864z" clip-rule="evenodd"/>
  </g>
  <defs>
    <clipPath id="a">
      <path fill="#fff" d="M0 0h48v48H0z"/>
    </clipPath>
  </defs>
</svg>
