<svg xmlns="http://www.w3.org/2000/svg" fill="none" viewBox="0 0 44 44">
  <path fill="#93C5FD" d="M22 0C9.85 0 0 9.85 0 22s9.85 22 22 22c10.901 0 19.95-7.928 21.696-18.333h-.158c-1.628 6.325-7.37 11-14.205 11-8.1 0-14.666-6.567-14.666-14.667S21.233 7.333 29.333 7.333c6.834 0 12.577 4.675 14.205 11h.158C41.95 7.928 32.9 0 22 0"/>
  <path fill="#1D4ED8" d="M0 22C0 9.85 9.85 0 22 0c10.901 0 19.95 7.928 21.696 18.333H28.87c-1.628-6.325-7.37-11-14.204-11C6.567 7.333 0 13.9 0 22m0 0c0 12.15 9.85 22 22 22 10.901 0 19.95-7.928 21.696-18.333H28.87c-1.628 6.325-7.37 11-14.204 11C6.567 36.667 0 30.1 0 22"/>
</svg>
