<svg xmlns="http://www.w3.org/2000/svg" fill="none" viewBox="0 0 44 44">
  <path fill="#9333EA" fill-rule="evenodd" d="M22 34.467c6.885 0 12.467-5.582 12.467-12.467S28.885 9.533 22 9.533 9.533 15.115 9.533 22 15.115 34.467 22 34.467M22 44c12.15 0 22-9.85 22-22S34.15 0 22 0 0 9.85 0 22s9.85 22 22 22" clip-rule="evenodd"/>
  <path fill="#F472B6" d="M22.252 22.482a5.867 5.867 0 0 1 8.296 0L41.956 33.89a5.867 5.867 0 1 1-8.297 8.297l-11.406-11.41a5.867 5.867 0 0 1 0-8.296z"/>
  <path fill="#6519BA" d="m25.455 33.982 7.245 7.245a22.1 22.1 0 0 0 8.36-8.233l-7.186-7.186a12.5 12.5 0 0 1-8.419 8.174"/>
</svg>
