<svg xmlns="http://www.w3.org/2000/svg" fill="none" viewBox="0 0 44 44">
  <path fill="#1D4ED8" d="M15.714 31.429c8.679 0 15.715-7.036 15.715-15.715 0-.983-.09-1.946-.264-2.88a16 16 0 0 0-2.88-.263c-8.678 0-15.714 7.036-15.714 15.715 0 .983.09 1.946.264 2.88.933.172 1.896.263 2.88.263z"/>
  <path fill="#2563EB" fill-rule="evenodd" d="M12.835 31.165C5.53 29.813 0 23.41 0 15.715 0 7.034 7.036 0 15.714 0c7.696 0 14.099 5.531 15.451 12.835a16 16 0 0 0-2.88-.264c-8.678 0-15.714 7.036-15.714 15.715 0 .983.09 1.946.264 2.88z" clip-rule="evenodd"/>
  <path fill="#3B82F6" fill-rule="evenodd" d="M15.714 31.428c8.679 0 15.714-7.035 15.714-15.714 0-.983-.09-1.946-.263-2.88C38.47 14.188 44 20.59 44 28.287 44 36.964 36.964 44 28.286 44c-7.696 0-14.099-5.531-15.451-12.835a16 16 0 0 0 2.88.264z" clip-rule="evenodd"/>
</svg>
