<svg xmlns="http://www.w3.org/2000/svg" xmlns:xlink="http://www.w3.org/1999/xlink" fill="none" viewBox="0 0 2260 1397">
  <path stroke="url(#a)" stroke-width="4" d="M1867.03 1192.04c9.99 2.3 20.29-2.29 25.27-11.25l158.03-284.682a22.97 22.97 0 0 0 2.04-17.384l-126.06-448.73a23 23 0 0 0-7.68-11.664l-317.4-256.703a23 23 0 0 0-23.82-3.129L1318.02 273.99a23 23 0 0 0-13.62 19.793l-21.61 407.644c-.25 4.761.98 9.482 3.53 13.511l249.12 393.932c3.24 5.13 8.38 8.76 14.28 10.12z" opacity=".014"/>
  <path stroke="url(#b)" stroke-width="4" d="M1817.23 1203.84c9.84 2.8 20.34-1.23 25.77-9.89l171.92-273.769a23 23 0 0 0 2.96-17.274l-101.24-450.582a23 23 0 0 0-7.08-12.081l-301.29-270.206a22.98 22.98 0 0 0-23.59-4.35L1321.17 266.84a23 23 0 0 0-14.63 19.024l-43.09 402.4a23 23 0 0 0 2.81 13.718l226.27 402.588c2.97 5.29 7.92 9.2 13.76 10.86z" opacity=".029"/>
  <path stroke="url(#c)" stroke-width="4" d="M1767.42 1214.04c9.65 3.28 20.31-.18 26.19-8.51l185.09-262.188a22.97 22.97 0 0 0 3.89-17.113l-76.58-451.079a23 23 0 0 0-6.47-12.467l-284.62-282.735a23.01 23.01 0 0 0-23.32-5.556l-266.84 86.7a23.01 23.01 0 0 0-15.6 18.201l-64.08 396.036c-.76 4.735-.03 9.59 2.1 13.888l203.18 409.943a23 23 0 0 0 13.21 11.56z" opacity=".043"/>
  <path stroke="url(#d)" stroke-width="4" d="M1717.67 1222.66c9.45 3.75 20.24.86 26.55-7.12l197.53-249.981a23.03 23.03 0 0 0 4.8-16.907l-52.16-450.238a23 23 0 0 0-5.82-12.824l-267.49-294.266a23.01 23.01 0 0 0-22.98-6.746l-269.37 72.18a23 23 0 0 0-16.53 17.328l-84.52 388.587a23.02 23.02 0 0 0 1.37 14.02L1409 1092.69c2.42 5.59 6.95 9.99 12.61 12.24z" opacity=".058"/>
  <path stroke="url(#e)" stroke-width="4" d="M1668.08 1229.71c9.22 4.21 20.11 1.9 26.82-5.71l209.2-237.203a23 23 0 0 0 5.7-16.648l-28.02-448.089a23 23 0 0 0-5.17-13.148l-249.93-304.788a23 23 0 0 0-22.57-7.914l-271.13 57.632a23.01 23.01 0 0 0-17.4 16.408l-104.36 380.095a22.94 22.94 0 0 0 .63 14.115l156.65 420.75a22.98 22.98 0 0 0 11.99 12.88z" opacity=".072"/>
  <path stroke="url(#f)" stroke-width="4" d="M1618.73 1235.21a23 23 0 0 0 27.02-4.28l220.07-223.9a23 23 0 0 0 6.6-16.339l-4.26-444.659a23 23 0 0 0-4.5-13.44l-232.01-314.288a23 23 0 0 0-22.1-9.057l-272.12 43.099a23.01 23.01 0 0 0-18.22 15.444l-123.53 370.601a22.95 22.95 0 0 0-.12 14.171l133.35 424.208a23 23 0 0 0 11.33 13.51z" opacity=".087"/>
  <path stroke="url(#g)" stroke-width="4" d="M1569.7 1239.2c8.69 5.1 19.7 3.95 27.14-2.85l230.14-210.11c4.51-4.12 7.2-9.88 7.47-15.99l19.06-439.979a23 23 0 0 0-3.8-13.696l-213.79-322.756a22.99 22.99 0 0 0-21.57-10.174l-272.33 28.623a22.99 22.99 0 0 0-18.99 14.437l-142.01 360.152a22.97 22.97 0 0 0-.87 14.188l110.12 426.405a22.98 22.98 0 0 0 10.64 14.08z" opacity=".101"/>
  <path stroke="url(#h)" stroke-width="4" d="M1521.07 1241.71c8.4 5.52 19.41 4.94 27.19-1.42l239.36-195.89a23 23 0 0 0 8.33-15.59l41.88-434.089c.47-4.85-.61-9.724-3.09-13.918l-195.31-330.187a23 23 0 0 0-21-11.259l-271.77 14.242a23.01 23.01 0 0 0-19.71 13.393l-159.72 348.793a23 23 0 0 0-1.63 14.166l87.03 427.339c1.22 6 4.79 11.27 9.91 14.63z" opacity=".116"/>
  <path stroke="url(#i)" stroke-width="4" d="M1472.92 1242.77a22.99 22.99 0 0 0 27.16 0l247.73-181.27c4.95-3.63 8.25-9.08 9.16-15.15l64.15-427.026c.73-4.835-.11-9.776-2.38-14.105l-176.65-336.578a22.99 22.99 0 0 0-20.36-12.312h-270.46c-8.55 0-16.39 4.742-20.36 12.312l-176.65 336.578a23 23 0 0 0-2.38 14.105l64.15 427.026c.91 6.07 4.21 11.52 9.16 15.15z" opacity=".13"/>
  <path stroke="url(#j)" stroke-width="4" d="M1425.32 1242.43c7.76 6.3 18.69 6.87 27.06 1.42l255.24-166.33c5.14-3.36 8.74-8.64 9.97-14.66l85.78-418.837c.98-4.806.41-9.802-1.65-14.256l-157.85-341.93a23.01 23.01 0 0 0-19.68-13.328l-268.41-14.067a23 23 0 0 0-20.96 11.199l-192.73 323.557a22.98 22.98 0 0 0-3.13 14.004l41.53 425.508c.59 6.12 3.62 11.74 8.39 15.62z" opacity=".145"/>
  <path stroke="url(#k)" stroke-width="4" d="M1378.35 1240.73c7.41 6.66 18.26 7.8 26.89 2.82l261.85-151.11a22.97 22.97 0 0 0 10.76-14.12l106.73-409.562c1.25-4.763.93-9.799-.91-14.367l-138.98-346.248a23.02 23.02 0 0 0-18.94-14.306l-265.63-27.919a23 23 0 0 0-21.5 10.056l-207.94 309.785a23.05 23.05 0 0 0-3.88 13.864l19.25 422.807c.28 6.15 3.01 11.93 7.59 16.05z" opacity=".159"/>
  <path stroke="url(#l)" stroke-width="4" d="M1332.08 1237.71a23 23 0 0 0 26.63 4.22l267.59-135.65c5.5-2.79 9.65-7.67 11.52-13.55l126.95-399.255a22.94 22.94 0 0 0-.17-14.443l-120.1-349.536a22.98 22.98 0 0 0-18.15-15.243l-262.14-41.52a23.01 23.01 0 0 0-21.98 8.888L1120 576.937a23 23 0 0 0-4.62 13.685l-2.64 418.948c-.04 6.16 2.4 12.09 6.77 16.44z" opacity=".174"/>
  <path stroke="url(#m)" stroke-width="4" d="M1286.57 1233.44a22.99 22.99 0 0 0 26.3 5.59l272.43-120.02a23 23 0 0 0 12.24-12.93l146.39-387.962a23 23 0 0 0 .59-14.481L1643.27 351.83a23 23 0 0 0-17.32-16.137l-257.97-54.832a23.01 23.01 0 0 0-22.39 7.696L1110 568.767a22.94 22.94 0 0 0-5.35 13.467l-24.07 413.965a22.98 22.98 0 0 0 5.93 16.791z" opacity=".188"/>
  <path stroke="url(#n)" stroke-width="4" d="M1241.88 1227.96a22.99 22.99 0 0 0 25.9 6.94l276.37-104.25a23.03 23.03 0 0 0 12.94-12.27l165-375.749c2-4.555 2.47-9.637 1.33-14.481l-82.49-353.073a23 23 0 0 0-16.44-16.984l-253.12-67.823a23.01 23.01 0 0 0-22.74 6.485l-247.98 264.524a23.04 23.04 0 0 0-6.08 13.21l-44.98 407.902a23 23 0 0 0 5.07 17.099z" opacity=".203"/>
  <path stroke="url(#o)" stroke-width="4" d="M1198.07 1221.33a22.99 22.99 0 0 0 25.44 8.26l279.41-88.4c5.9-1.87 10.81-6.05 13.6-11.58l182.72-362.652a22.97 22.97 0 0 0 2.1-14.441l-63.88-353.35a23.02 23.02 0 0 0-15.53-17.782l-247.63-80.46a23 23 0 0 0-23.01 5.26l-259.38 248.318a23 23 0 0 0-6.79 12.913l-65.33 400.795c-1 6.117.51 12.376 4.19 17.362z" opacity=".217"/>
  <path stroke="url(#p)" stroke-width="4" d="M1155.19 1213.61c5.42 8.17 15.42 12 24.91 9.56l281.55-72.53a23.03 23.03 0 0 0 14.23-10.85l199.54-348.742a23 23 0 0 0 2.85-14.364l-45.47-352.656a22.99 22.99 0 0 0-14.57-18.531l-241.51-92.708a23.01 23.01 0 0 0-23.23 4.023l-269.76 231.652a23 23 0 0 0-7.49 12.579l-85.063 392.685a23 23 0 0 0 3.31 17.582z" opacity=".232"/>
  <path stroke="url(#q)" stroke-width="4" d="M1113.3 1204.87a23.01 23.01 0 0 0 24.31 10.82l282.81-56.68c6.1-1.22 11.44-4.86 14.81-10.09l215.41-334.072a22.97 22.97 0 0 0 3.6-14.247l-27.3-351.013a22.99 22.99 0 0 0-13.57-19.228l-234.8-104.539a23 23 0 0 0-23.37 2.777l-279.12 214.587a22.95 22.95 0 0 0-8.18 12.209l-104.13 383.62a23 23 0 0 0 2.413 17.756z" opacity=".246"/>
  <path stroke="url(#r)" stroke-width="4" d="M1072.45 1195.16c4.53 8.62 14 13.44 23.63 12.05l283.2-40.9c6.16-.89 11.7-4.24 15.35-9.29l230.29-318.712a22.96 22.96 0 0 0 4.35-14.092l-9.42-348.445a23.02 23.02 0 0 0-12.55-19.871l-227.52-115.923a23 23 0 0 0-23.45 1.527L1068.89 538.69a23 23 0 0 0-8.84 11.802L937.569 924.136a23 23 0 0 0 1.507 17.884z" opacity=".261"/>
  <path stroke="url(#s)" stroke-width="4" d="M1032.67 1184.57a22.99 22.99 0 0 0 22.9 13.23l282.7-25.23a23.05 23.05 0 0 0 15.86-8.47l244.16-302.721a23.02 23.02 0 0 0 5.09-13.899l8.11-344.977a23 23 0 0 0-11.49-20.458L1380.31 355.21a22.99 22.99 0 0 0-23.46.275l-294.71 179.51a23.07 23.07 0 0 0-9.49 11.359l-140.077 362.81a23 23 0 0 0 .595 17.968z" opacity=".275"/>
  <path stroke="url(#t)" stroke-width="4" d="M993.998 1173.16a23.02 23.02 0 0 0 22.122 14.36l281.35-9.74c6.24-.21 12.13-2.96 16.31-7.61l257-286.157a22.96 22.96 0 0 0 5.82-13.667l25.26-340.638a23 23 0 0 0-10.41-20.99L1380.11 371.47a23 23 0 0 0-23.41-.972l-300.92 161.62a23.05 23.05 0 0 0-10.12 10.881L888.779 894.166a23 23 0 0 0-.323 18.005z" opacity=".29"/>
  <path stroke="url(#u)" stroke-width="4" d="M956.478 1160.99a23 23 0 0 0 21.272 15.45l279.16 5.55c6.26.13 12.3-2.31 16.73-6.74l268.77-269.084a22.98 22.98 0 0 0 6.55-13.399l41.97-335.459a23 23 0 0 0-9.3-21.462l-202.52-147.138a22.99 22.99 0 0 0-23.28-2.216l-306.07 143.581a22.97 22.97 0 0 0-10.72 10.369L866.177 879.211a23 23 0 0 0-1.242 17.994z" opacity=".304"/>
  <path stroke="url(#v)" stroke-width="4" d="M920.134 1148.14a23.01 23.01 0 0 0 20.372 16.5l276.144 20.57c6.26.47 12.44-1.64 17.1-5.84l279.47-251.577a23.02 23.02 0 0 0 7.27-13.092l58.22-329.473a23.01 23.01 0 0 0-8.18-21.877l-193.24-156.483a23 23 0 0 0-23.1-3.449l-310.17 125.45a23 23 0 0 0-11.29 9.825L844.754 864.365a23 23 0 0 0-2.16 17.938z" opacity=".319"/>
  <path stroke="url(#w)" stroke-width="4" d="M884.993 1134.69a23.005 23.005 0 0 0 19.419 17.48l272.338 35.3c6.23.81 12.53-.97 17.42-4.92l289.08-233.697a22.98 22.98 0 0 0 7.96-12.748l73.96-322.715a22.97 22.97 0 0 0-7.03-22.23L1374.6 425.893a23.02 23.02 0 0 0-22.85-4.665l-313.21 107.29a22.97 22.97 0 0 0-11.85 9.248L824.495 849.694a23 23 0 0 0-3.076 17.835z" opacity=".333"/>
  <path stroke="url(#x)" stroke-width="4" d="M851.074 1120.7a23.01 23.01 0 0 0 18.418 18.42l267.748 49.68c6.2 1.14 12.59-.3 17.69-3.99l297.6-215.502a23 23 0 0 0 8.64-12.369l89.16-315.221a23 23 0 0 0-5.87-22.524L1371 445.73a23.01 23.01 0 0 0-22.53-5.869l-315.22 89.161a23.02 23.02 0 0 0-12.37 8.641L805.38 835.26a23 23 0 0 0-3.985 17.687z" opacity=".348"/>
  <path stroke="url(#y)" stroke-width="4" d="M818.396 1106.25a22.98 22.98 0 0 0 17.372 19.29l262.412 63.68c6.13 1.49 12.6.39 17.9-3.03l305.01-197.071a23 23 0 0 0 9.31-11.953l103.78-307.029a22.99 22.99 0 0 0-4.7-22.755l-163.03-181.067a23 23 0 0 0-22.14-7.05l-316.19 71.121a23 23 0 0 0-12.86 8.007L787.386 821.13a23 23 0 0 0-4.888 17.49z" opacity=".362"/>
  <path stroke="url(#z)" stroke-width="4" d="M786.969 1091.42a23.01 23.01 0 0 0 16.284 20.11l256.347 77.25a23.05 23.05 0 0 0 18.08-2.07l311.31-178.46c4.52-2.59 8.03-6.65 9.95-11.5l117.8-298.178a23 23 0 0 0-3.52-22.924L1360.93 487.59a23 23 0 0 0-21.69-8.206l-316.15 53.228a22.95 22.95 0 0 0-13.32 7.344L770.486 807.361a23 23 0 0 0-5.781 17.25z" opacity=".377"/>
  <path stroke="url(#A)" stroke-width="4" d="M756.801 1076.28a22.995 22.995 0 0 0 15.158 20.86l249.591 90.36a23 23 0 0 0 18.19-1.09l316.51-159.73c4.68-2.36 8.41-6.25 10.58-11.02l131.18-288.709a23.03 23.03 0 0 0-2.33-23.034l-141.26-194.424a23.01 23.01 0 0 0-21.19-9.336l-315.11 35.54a23 23 0 0 0-13.75 6.656l-249.719 251.66a23 23 0 0 0-6.661 16.963z" opacity=".391"/>
  <path stroke="url(#B)" stroke-width="4" d="M727.896 1060.9a23 23 0 0 0 13.997 21.55l242.173 102.98a23.03 23.03 0 0 0 18.254-.11l320.62-140.95c4.81-2.12 8.76-5.83 11.18-10.51l143.89-278.662a23 23 0 0 0-1.15-23.08l-129.98-200.155a23 23 0 0 0-20.62-10.435l-313.1 18.109a23.02 23.02 0 0 0-14.14 5.943L739.848 781.143a23 23 0 0 0-7.526 16.634z" opacity=".406"/>
  <path stroke="url(#C)" stroke-width="4" d="M700.254 1045.36a22.99 22.99 0 0 0 12.803 22.17l234.126 115.07a23 23 0 0 0 18.269.88l323.628-122.19c4.95-1.87 9.1-5.39 11.76-9.96l155.92-268.086a22.99 22.99 0 0 0 .04-23.064l-118.5-205.244a23 23 0 0 0-19.99-11.5l-310.14.991a23 23 0 0 0-14.494 5.205L726.041 768.806a23 23 0 0 0-8.377 16.259z" opacity=".42"/>
  <path stroke="url(#D)" stroke-width="4" d="M673.868 1029.73a22.99 22.99 0 0 0 11.584 22.73l225.483 126.6a23 23 0 0 0 18.229 1.86l325.566-103.5c5.06-1.61 9.41-4.92 12.31-9.38l167.25-257.019a23 23 0 0 0 1.22-22.987l-106.84-209.686a23.02 23.02 0 0 0-19.32-12.528l-306.24-15.764a23 23 0 0 0-14.819 4.448l-275.1 202.548a23 23 0 0 0-9.207 15.843z" opacity=".435"/>
  <path stroke="url(#E)" stroke-width="4" d="M648.73 1014.08a22.99 22.99 0 0 0 10.339 23.22l216.285 137.54a22.98 22.98 0 0 0 18.135 2.85l326.441-84.95c5.17-1.35 9.7-4.45 12.84-8.77l177.85-245.51a23 23 0 0 0 2.39-22.849l-95.05-213.475a23 23 0 0 0-18.57-13.516l-301.464-32.107a23 23 0 0 0-15.101 3.673L701.256 745.933a23 23 0 0 0-10.016 15.384z" opacity=".449"/>
  <path stroke="url(#F)" stroke-width="4" d="M624.826 998.486a23.01 23.01 0 0 0 9.076 23.644L840.466 1170a23 23 0 0 0 17.989 3.83l326.285-66.6c5.25-1.08 9.97-3.95 13.33-8.13l187.72-233.603a23 23 0 0 0 3.54-22.65l-83.15-216.61a23 23 0 0 0-17.79-14.461l-295.811-47.99a23 23 0 0 0-15.344 2.879L690.194 735.494a23 23 0 0 0-10.803 14.886z" opacity=".464"/>
  <path stroke="url(#G)" stroke-width="4" d="M602.14 983.014a23.01 23.01 0 0 0 7.795 23.996l196.366 157.55a22.95 22.95 0 0 0 17.787 4.81l325.102-48.5a23.07 23.07 0 0 0 13.8-7.46l196.83-221.341a23 23 0 0 0 4.69-22.392l-71.19-219.09a22.98 22.98 0 0 0-16.95-15.36l-289.343-63.369a23 23 0 0 0-15.545 2.069L679.956 725.78a23 23 0 0 0-11.564 14.346z" opacity=".478"/>
  <path stroke="url(#H)" stroke-width="4" d="M580.649 967.732a23 23 0 0 0 6.503 24.271l185.725 166.587a23.03 23.03 0 0 0 17.535 5.78l322.938-30.72c5.39-.51 10.43-2.91 14.23-6.77l205.19-208.762a23 23 0 0 0 5.81-22.076l-59.2-220.919a22.98 22.98 0 0 0-16.07-16.211l-282.079-78.2a23 23 0 0 0-15.707 1.246L670.496 716.831a23 23 0 0 0-12.299 13.768z" opacity=".493"/>
  <path stroke="url(#I)" stroke-width="4" d="M560.33 952.705a23 23 0 0 0 5.203 24.479l174.684 174.936c4.549 4.56 10.798 7 17.23 6.73l319.813-13.28a22.98 22.98 0 0 0 14.62-6.06l212.78-195.927a22.99 22.99 0 0 0 6.92-21.701l-47.21-222.099a23 23 0 0 0-15.15-17.012l-274.069-92.444a23 23 0 0 0-15.826.413L661.761 708.684a23 23 0 0 0-13.004 13.154z" opacity=".507"/>
  <path stroke="url(#J)" stroke-width="4" d="M541.154 937.998a23 23 0 0 0 3.898 24.615l163.287 182.597a23 23 0 0 0 16.872 7.67l315.749 3.73c5.48.06 10.79-1.82 14.99-5.33l219.59-182.867a22.99 22.99 0 0 0 8-21.272l-35.26-222.635a23 23 0 0 0-14.18-17.759L968.748 600.683a23 23 0 0 0-15.902-.431L653.7 701.375a23 23 0 0 0-13.677 12.505z" opacity=".522"/>
  <path stroke="url(#K)" stroke-width="4" d="M523.089 923.671a23 23 0 0 0 2.594 24.68l151.571 189.539a23 23 0 0 0 16.466 8.59l310.8 20.29c5.49.35 10.93-1.27 15.32-4.57l225.63-169.645a22.99 22.99 0 0 0 9.05-20.788l-23.39-222.536a22.98 22.98 0 0 0-13.17-18.451L961.988 611.755a23 23 0 0 0-15.935-1.282L646.26 694.935a23 23 0 0 0-14.32 11.822z" opacity=".536"/>
  <path stroke="url(#L)" stroke-width="4" d="M506.101 909.782a23 23 0 0 0 1.293 24.676l139.585 195.762a23 23 0 0 0 16.007 9.49l304.993 36.33c5.491.65 11.034-.69 15.613-3.79l230.898-156.29c6.67-4.52 10.5-12.2 10.07-20.249L1212.94 773.9a23 23 0 0 0-12.14-19.087L954.834 623.519a23 23 0 0 0-15.924-2.14l-299.524 68.013a23 23 0 0 0-14.928 11.107z" opacity=".551"/>
  <path stroke="url(#M)" stroke-width="4" d="M490.15 896.39a23 23 0 0 0 0 24.6l127.37 201.26a22.98 22.98 0 0 0 15.499 10.36l298.368 51.82c5.478.95 11.115-.11 15.868-3l235.395-142.84a23 23 0 0 0 11.06-19.66V798.454c0-8.038-4.19-15.493-11.06-19.663L947.255 635.946a23 23 0 0 0-15.868-2.998l-298.368 51.821a23 23 0 0 0-15.499 10.361z" opacity=".565"/>
  <path stroke="url(#N)" stroke-width="4" d="M475.198 883.546a23 23 0 0 0-1.282 24.455l114.966 206.019a23.03 23.03 0 0 0 14.944 11.21l290.968 66.72a23 23 0 0 0 16.084-2.19L1150 1060.39a23 23 0 0 0 12.03-19.02l11.45-218.532a23 23 0 0 0-9.97-20.178L939.218 649.008a23 23 0 0 0-15.768-3.858l-296.348 35.939a23 23 0 0 0-16.033 9.587z" opacity=".58"/>
  <path stroke="url(#O)" stroke-width="4" d="M461.199 871.303a23 23 0 0 0-2.548 24.239l102.421 210.028a22.96 22.96 0 0 0 14.342 12.03l282.836 80.99a22.97 22.97 0 0 0 16.261-1.37l242.099-115.88a23.02 23.02 0 0 0 12.95-18.34l22.7-216.002a23.02 23.02 0 0 0-8.85-20.633L930.694 662.676a23 23 0 0 0-15.623-4.717l-293.492 20.41a23 23 0 0 0-16.529 8.786z" opacity=".594"/>
  <path stroke="url(#P)" stroke-width="4" d="M448.108 859.705a23 23 0 0 0-3.795 23.959l89.776 213.306a23.04 23.04 0 0 0 13.694 12.82l274.019 94.58a23 23 0 0 0 16.398-.53l244.33-102.45a23.02 23.02 0 0 0 13.83-17.61l33.71-212.9a22.98 22.98 0 0 0-7.7-21.022l-200.714-172.94a23 23 0 0 0-15.432-5.571l-289.834 5.277a23 23 0 0 0-16.986 7.959z" opacity=".609"/>
  <path stroke="url(#Q)" stroke-width="4" d="M435.876 848.799a23 23 0 0 0-5.019 23.611l77.075 215.83a23.02 23.02 0 0 0 13.003 13.58l264.563 107.48a23 23 0 0 0 16.493.31l245.829-89.09a23.01 23.01 0 0 0 14.66-16.85l44.48-209.236a23 23 0 0 0-6.54-21.348L912.077 691.702a23 23 0 0 0-15.195-6.421l-285.407-9.419a23 23 0 0 0-17.401 7.112z" opacity=".623"/>
  <path stroke="url(#R)" stroke-width="4" d="M424.452 838.625a23 23 0 0 0-6.216 23.199l64.36 217.626a22.98 22.98 0 0 0 12.27 14.29l254.518 119.65a23 23 0 0 0 16.549 1.17l246.607-75.87a23 23 0 0 0 15.46-16.03l54.94-205.045c2.05-7.647.02-15.81-5.37-21.609L901.935 706.994a23 23 0 0 0-14.916-7.262l-280.244-23.638a23 23 0 0 0-17.772 6.242z" opacity=".638"/>
  <path stroke="url(#S)" stroke-width="4" d="M413.784 829.22a23 23 0 0 0-7.384 22.726l51.675 218.684a22.98 22.98 0 0 0 11.497 14.97l243.935 131.07a23.03 23.03 0 0 0 16.561 2.03l246.689-62.81a22.97 22.97 0 0 0 16.2-15.18l65.093-200.337a23 23 0 0 0-4.18-21.804L891.207 722.76a23 23 0 0 0-14.59-8.094L602.231 677.32a23 23 0 0 0-18.101 5.354z" opacity=".652"/>
  <path stroke="url(#T)" stroke-width="4" d="M403.818 820.62a23 23 0 0 0-8.517 22.189l39.058 219.021a23 23 0 0 0 10.686 15.61l232.863 141.7a22.97 22.97 0 0 0 16.531 2.9l246.087-49.94a22.98 22.98 0 0 0 16.899-14.3l74.905-195.132a23 23 0 0 0-2.99-21.933L879.874 738.962a23 23 0 0 0-14.22-8.912l-267.87-50.508a23 23 0 0 0-18.387 4.45z" opacity=".667"/>
  <path stroke="url(#U)" stroke-width="4" d="M394.498 812.853a23 23 0 0 0-9.615 21.597l26.554 218.64a23 23 0 0 0 9.84 16.2l221.355 151.55a22.96 22.96 0 0 0 16.457 3.76l244.825-37.3a23 23 0 0 0 17.547-13.38l84.349-189.462a22.98 22.98 0 0 0-1.79-21.995L867.918 755.565a23 23 0 0 0-13.806-9.714l-260.738-63.094a23 23 0 0 0-18.627 3.531z" opacity=".681"/>
  <path stroke="url(#V)" stroke-width="4" d="M385.768 805.948a23 23 0 0 0-10.673 20.946l14.2 217.556a23 23 0 0 0 8.958 16.76l209.467 160.58a23 23 0 0 0 16.341 4.62l242.921-24.93a22.99 22.99 0 0 0 18.145-12.43l93.417-183.34a23 23 0 0 0-.603-21.995l-122.618-211.18a23 23 0 0 0-13.347-10.501l-253.032-75.077a23 23 0 0 0-18.821 2.601z" opacity=".696"/>
  <path stroke="url(#W)" stroke-width="4" d="M377.569 799.927a23 23 0 0 0-11.687 20.243l2.035 215.79a23 23 0 0 0 8.046 17.26L573.21 1222a22.98 22.98 0 0 0 16.182 5.49l240.405-12.85c7.768-.42 14.8-4.73 18.69-11.47l102.073-176.8a23 23 0 0 0 .586-21.92L842.078 789.83a23 23 0 0 0-12.847-11.268l-244.795-86.429a23 23 0 0 0-18.968 1.661z" opacity=".71"/>
  <path stroke="url(#X)" stroke-width="4" d="M369.844 794.81a23 23 0 0 0-12.658 19.489l-9.901 213.351a23 23 0 0 0 7.103 17.72l184.754 176.15a23 23 0 0 0 15.978 6.35l237.299-1.11a23 23 0 0 0 19.182-10.47l110.304-169.86a23 23 0 0 0 1.766-21.78l-95.503-217.234a23 23 0 0 0-12.303-12.013L579.796 698.27a23 23 0 0 0-19.071.715z" opacity=".725"/>
  <path stroke="url(#Y)" stroke-width="4" d="M362.531 790.613a23 23 0 0 0-13.577 18.687l-21.577 210.27a23 23 0 0 0 6.136 18.11l172.035 182.69a23.03 23.03 0 0 0 15.734 7.21l233.632 10.27c7.712.34 15.08-3.21 19.618-9.45l118.093-162.55a23 23 0 0 0 2.933-21.58l-81.97-219.018a23 23 0 0 0-11.719-12.735L574.965 705.354a23 23 0 0 0-19.125-.238z" opacity=".739"/>
  <path stroke="url(#Z)" stroke-width="4" d="M355.572 787.348a23 23 0 0 0-14.446 17.84l-32.952 206.552a23.01 23.01 0 0 0 5.144 18.47l159.149 188.37a23.04 23.04 0 0 0 15.444 8.06l229.431 21.28a22.99 22.99 0 0 0 19.999-8.43l125.423-154.88a23 23 0 0 0 4.086-21.32l-68.522-219.988a23 23 0 0 0-11.093-13.431L569.894 713.364a23 23 0 0 0-19.133-1.192z" opacity=".754"/>
  <path stroke="url(#aa)" stroke-width="4" d="M348.908 785.025a23 23 0 0 0-15.262 16.95L289.65 1004.21a23 23 0 0 0 4.131 18.76l146.145 193.21a22.97 22.97 0 0 0 15.113 8.9l224.729 31.89c7.58 1.07 15.2-1.69 20.323-7.38l132.28-146.92a22.99 22.99 0 0 0 5.217-20.98l-55.203-220.164a23 23 0 0 0-10.427-14.1L564.526 722.277a23 23 0 0 0-19.093-2.147z" opacity=".768"/>
  <path stroke="url(#ab)" stroke-width="4" d="M342.479 783.646a23 23 0 0 0-16.023 16.023l-54.678 197.328a22.99 22.99 0 0 0 3.1 19.003l133.081 197.22a23 23 0 0 0 14.738 9.73l219.551 42.06a23.02 23.02 0 0 0 20.592-6.33l138.652-138.65a23 23 0 0 0 6.326-20.59l-42.062-219.553a23 23 0 0 0-9.724-14.738L558.814 732.068a23 23 0 0 0-19.007-3.1z" opacity=".783"/>
  <path stroke="url(#ac)" stroke-width="4" d="M336.226 783.213a23 23 0 0 0-16.727 15.061l-64.965 191.87a23 23 0 0 0 2.053 19.196l120.005 200.39a23.04 23.04 0 0 0 14.32 10.54l213.935 51.78a22.98 22.98 0 0 0 20.801-5.26l144.527-130.13a23.01 23.01 0 0 0 7.408-20.14l-29.142-218.174a23 23 0 0 0-8.983-15.344l-186.75-140.294a23 23 0 0 0-18.873-4.047z" opacity=".797"/>
  <path stroke="url(#ad)" stroke-width="4" d="M330.089 783.726a23 23 0 0 0-17.371 14.066l-74.83 185.884a23 23 0 0 0 .994 19.324l106.968 202.74a23 23 0 0 0 13.862 11.34l207.907 61.05a23.01 23.01 0 0 0 20.954-4.2l149.897-121.38a23.01 23.01 0 0 0 8.459-19.63L730.44 916.867a23 23 0 0 0-8.206-15.917L546.163 754.168a23 23 0 0 0-18.694-4.99z" opacity=".812"/>
  <path stroke="url(#ae)" stroke-width="4" d="M324.011 785.175a23 23 0 0 0-17.955 13.045L221.81 977.622a23 23 0 0 0-.074 19.393l94.02 204.285a23 23 0 0 0 13.363 12.11l201.503 69.83a22.98 22.98 0 0 0 21.05-3.12l154.753-112.44a22.99 22.99 0 0 0 9.476-19.05l-4.143-213.219a23 23 0 0 0-7.394-16.453L539.132 766.412a23 23 0 0 0-18.466-5.922z" opacity=".826"/>
  <path stroke="url(#af)" stroke-width="4" d="M317.935 787.555a23 23 0 0 0-18.475 11.998l-93.191 172.451a23 23 0 0 0-1.149 19.405l81.212 205.031a23 23 0 0 0 12.822 12.88l194.756 78.11a23 23 0 0 0 21.089-2.05l159.089-103.32a22.99 22.99 0 0 0 10.457-18.43l7.854-209.687a23 23 0 0 0-6.548-16.951L531.576 779.406a23 23 0 0 0-18.195-6.843z" opacity=".841"/>
  <path stroke="url(#ag)" stroke-width="4" d="M311.806 790.85a23 23 0 0 0-18.934 10.932L191.233 966.846a23 23 0 0 0-2.227 19.358l68.589 205.006a23 23 0 0 0 12.241 13.62l187.702 85.89a23 23 0 0 0 21.07-.99l162.902-94.06a22.99 22.99 0 0 0 11.398-17.75l19.465-205.496a23 23 0 0 0-5.672-17.409L523.453 793.111a23 23 0 0 0-17.878-7.75z" opacity=".855"/>
  <path stroke="url(#ah)" stroke-width="4" d="M305.568 795.047a23 23 0 0 0-19.327 9.847L176.67 962.17a23 23 0 0 0-3.305 19.25l56.197 204.23a22.98 22.98 0 0 0 11.622 14.33l180.369 93.16a23 23 0 0 0 20.996.06l166.19-84.68a23 23 0 0 0 12.295-17.02l30.653-200.678a23 23 0 0 0-4.765-17.827L514.727 807.487a23 23 0 0 0-17.516-8.641z" opacity=".87"/>
  <path stroke="url(#ai)" stroke-width="4" d="M299.17 800.123a23 23 0 0 0-19.657 8.752L162.545 957.992a23 23 0 0 0-4.379 19.082l44.08 202.726a23.03 23.03 0 0 0 10.963 15.03l172.797 99.89a22.98 22.98 0 0 0 20.866 1.1l168.951-75.22a22.98 22.98 0 0 0 13.145-16.24l41.385-195.26a23 23 0 0 0-3.831-18.2L505.363 822.492a23 23 0 0 0-17.111-9.514z" opacity=".884"/>
  <path stroke="url(#aj)" stroke-width="4" d="M292.558 806.059a23 23 0 0 0-19.92 7.647L148.823 954.331a23 23 0 0 0-5.445 18.854l32.28 200.515a22.97 22.97 0 0 0 10.267 15.69l165.017 106.12a22.99 22.99 0 0 0 20.682 2.12l171.184-65.71a22.98 22.98 0 0 0 13.947-15.42l51.628-189.27c1.72-6.31.677-13.04-2.868-18.53L495.33 838.083a23 23 0 0 0-16.663-10.367z" opacity=".899"/>
  <path stroke="url(#ak)" stroke-width="4" d="M285.686 812.827a23 23 0 0 0-20.12 6.538L135.471 951.199a23 23 0 0 0-6.502 18.567l20.836 197.644a23 23 0 0 0 9.535 16.32l157.063 111.8a23.01 23.01 0 0 0 20.446 3.13l172.893-56.17a23 23 0 0 0 14.697-14.56l61.355-182.76a23 23 0 0 0-1.882-18.81l-99.313-172.146a23 23 0 0 0-16.173-11.198z" opacity=".913"/>
  <path stroke="url(#al)" stroke-width="4" d="M278.505 820.402a23 23 0 0 0-20.254 5.428L122.453 948.609a23 23 0 0 0-7.546 18.219l9.787 194.122a23 23 0 0 0 8.77 16.93l148.968 116.95a22.98 22.98 0 0 0 20.155 4.12l174.084-46.64a23.02 23.02 0 0 0 15.393-13.65l70.537-175.77a22.98 22.98 0 0 0-.873-19.04l-88.584-173.011a23 23 0 0 0-15.644-12.005z" opacity=".928"/>
  <path stroke="url(#am)" stroke-width="4" d="M270.97 828.753a23 23 0 0 0-20.322 4.319L109.733 946.571a23 23 0 0 0-8.572 17.812l-.832 189.997a22.98 22.98 0 0 0 7.968 17.5l140.768 121.57a23 23 0 0 0 19.814 5.09l174.76-37.14a23.01 23.01 0 0 0 16.031-12.71l79.151-168.32a22.99 22.99 0 0 0 .158-19.23l-78.037-173.231a23 23 0 0 0-15.076-12.785z" opacity=".942"/>
  <path stroke="url(#an)" stroke-width="4" d="M263.038 837.845a23 23 0 0 0-20.324 3.219L97.277 945.092a23 23 0 0 0-9.58 17.346L76.711 1147.73a23 23 0 0 0 7.133 18.05l132.492 125.66a22.99 22.99 0 0 0 19.425 6.03l174.927-27.7a23.01 23.01 0 0 0 16.612-11.74l87.176-160.46a22.98 22.98 0 0 0 1.205-19.36l-67.707-172.835a23 23 0 0 0-14.471-13.536z" opacity=".957"/>
  <path stroke="url(#ao)" stroke-width="4" d="M254.671 847.646a23 23 0 0 0-20.265 2.129L85.048 944.176a23 23 0 0 0-10.562 16.822L53.838 1141.06a22.99 22.99 0 0 0 6.265 18.55l124.175 129.24a23 23 0 0 0 18.988 6.94l174.595-18.35a23.03 23.03 0 0 0 17.131-10.74l94.591-152.23a23 23 0 0 0 2.271-19.45l-57.633-171.832a23 23 0 0 0-13.829-14.258z" opacity=".971"/>
  <path stroke="url(#ap)" stroke-width="4" d="M245.829 858.115a23 23 0 0 0-20.142 1.056L73.01 943.828a23 23 0 0 0-11.518 16.241L31.706 1134.4a23 23 0 0 0 5.368 19.03l115.844 132.29a23 23 0 0 0 18.508 7.81l173.771-9.1a23 23 0 0 0 17.589-9.71l101.381-143.68a23 23 0 0 0 3.351-19.48l-47.846-170.262a23 23 0 0 0-13.153-14.949z" opacity=".986"/>
  <path stroke="url(#aq)" stroke-width="4" d="M236.479 869.215a23 23 0 0 0-19.958 0L61.13 944.047a23 23 0 0 0-12.445 15.605L10.308 1127.8a23.01 23.01 0 0 0 4.441 19.46l107.533 134.84a23 23 0 0 0 17.983 8.66h172.47c7 0 13.619-3.19 17.983-8.66l107.533-134.84a23.01 23.01 0 0 0 4.441-19.46l-38.378-168.148a23 23 0 0 0-12.444-15.605z"/>
  <defs>
    <linearGradient id="a" x1="1884.92" x2="1406.8" y1="1198.21" y2="124.352" gradientUnits="userSpaceOnUse">
      <stop stop-color="#FF1CF7"/>
      <stop offset="1" stop-color="#00F0FF"/>
    </linearGradient>
    <linearGradient id="b" x1="1834.72" x2="1417.18" y1="1210.9" y2="123.169" gradientUnits="userSpaceOnUse">
      <stop stop-color="#FF1CF7"/>
      <stop offset="1" stop-color="#00F0FF"/>
    </linearGradient>
    <linearGradient id="c" x1="1784.47" x2="1427.63" y1="1221.95" y2="123.732" gradientUnits="userSpaceOnUse">
      <stop stop-color="#FF1CF7"/>
      <stop offset="1" stop-color="#00F0FF"/>
    </linearGradient>
    <linearGradient id="d" x1="1734.24" x2="1438.06" y1="1231.4" y2="126.029" gradientUnits="userSpaceOnUse">
      <stop stop-color="#FF1CF7"/>
      <stop offset="1" stop-color="#00F0FF"/>
    </linearGradient>
    <linearGradient id="e" x1="1684.12" x2="1448.35" y1="1239.25" y2="130.04" gradientUnits="userSpaceOnUse">
      <stop stop-color="#FF1CF7"/>
      <stop offset="1" stop-color="#00F0FF"/>
    </linearGradient>
    <linearGradient id="f" x1="1634.21" x2="1458.44" y1="1245.52" y2="135.744" gradientUnits="userSpaceOnUse">
      <stop stop-color="#FF1CF7"/>
      <stop offset="1" stop-color="#00F0FF"/>
    </linearGradient>
    <linearGradient id="g" x1="1584.58" x2="1468.21" y1="1250.25" y2="143.112" gradientUnits="userSpaceOnUse">
      <stop stop-color="#FF1CF7"/>
      <stop offset="1" stop-color="#00F0FF"/>
    </linearGradient>
    <linearGradient id="h" x1="1535.32" x2="1477.6" y1="1253.46" y2="152.11" gradientUnits="userSpaceOnUse">
      <stop stop-color="#FF1CF7"/>
      <stop offset="1" stop-color="#00F0FF"/>
    </linearGradient>
    <linearGradient id="i" x1="1486.5" x2="1486.5" y1="1255.19" y2="162.702" gradientUnits="userSpaceOnUse">
      <stop stop-color="#FF1CF7"/>
      <stop offset="1" stop-color="#00F0FF"/>
    </linearGradient>
    <linearGradient id="j" x1="1438.21" x2="1494.84" y1="1255.48" y2="174.846" gradientUnits="userSpaceOnUse">
      <stop stop-color="#FF1CF7"/>
      <stop offset="1" stop-color="#00F0FF"/>
    </linearGradient>
    <linearGradient id="k" x1="1390.51" x2="1502.54" y1="1254.36" y2="188.494" gradientUnits="userSpaceOnUse">
      <stop stop-color="#FF1CF7"/>
      <stop offset="1" stop-color="#00F0FF"/>
    </linearGradient>
    <linearGradient id="l" x1="1343.48" x2="1509.52" y1="1251.89" y2="203.597" gradientUnits="userSpaceOnUse">
      <stop stop-color="#FF1CF7"/>
      <stop offset="1" stop-color="#00F0FF"/>
    </linearGradient>
    <linearGradient id="m" x1="1297.19" x2="1515.71" y1="1248.12" y2="220.101" gradientUnits="userSpaceOnUse">
      <stop stop-color="#FF1CF7"/>
      <stop offset="1" stop-color="#00F0FF"/>
    </linearGradient>
    <linearGradient id="n" x1="1251.7" x2="1521.03" y1="1243.1" y2="237.947" gradientUnits="userSpaceOnUse">
      <stop stop-color="#FF1CF7"/>
      <stop offset="1" stop-color="#00F0FF"/>
    </linearGradient>
    <linearGradient id="o" x1="1207.07" x2="1525.43" y1="1236.89" y2="257.075" gradientUnits="userSpaceOnUse">
      <stop stop-color="#FF1CF7"/>
      <stop offset="1" stop-color="#00F0FF"/>
    </linearGradient>
    <linearGradient id="p" x1="1163.36" x2="1528.85" y1="1229.54" y2="277.421" gradientUnits="userSpaceOnUse">
      <stop stop-color="#FF1CF7"/>
      <stop offset="1" stop-color="#00F0FF"/>
    </linearGradient>
    <linearGradient id="q" x1="1120.62" x2="1531.22" y1="1221.13" y2="298.917" gradientUnits="userSpaceOnUse">
      <stop stop-color="#FF1CF7"/>
      <stop offset="1" stop-color="#00F0FF"/>
    </linearGradient>
    <linearGradient id="r" x1="1078.9" x2="1532.49" y1="1211.71" y2="321.494" gradientUnits="userSpaceOnUse">
      <stop stop-color="#FF1CF7"/>
      <stop offset="1" stop-color="#00F0FF"/>
    </linearGradient>
    <linearGradient id="s" x1="1038.25" x2="1532.62" y1="1201.35" y2="345.079" gradientUnits="userSpaceOnUse">
      <stop stop-color="#FF1CF7"/>
      <stop offset="1" stop-color="#00F0FF"/>
    </linearGradient>
    <linearGradient id="t" x1="998.703" x2="1531.56" y1="1190.12" y2="369.599" gradientUnits="userSpaceOnUse">
      <stop stop-color="#FF1CF7"/>
      <stop offset="1" stop-color="#00F0FF"/>
    </linearGradient>
    <linearGradient id="u" x1="960.298" x2="1529.27" y1="1178.1" y2="394.978" gradientUnits="userSpaceOnUse">
      <stop stop-color="#FF1CF7"/>
      <stop offset="1" stop-color="#00F0FF"/>
    </linearGradient>
    <linearGradient id="v" x1="923.069" x2="1525.71" y1="1165.34" y2="421.138" gradientUnits="userSpaceOnUse">
      <stop stop-color="#FF1CF7"/>
      <stop offset="1" stop-color="#00F0FF"/>
    </linearGradient>
    <linearGradient id="w" x1="887.042" x2="1520.87" y1="1151.94" y2="448.001" gradientUnits="userSpaceOnUse">
      <stop stop-color="#FF1CF7"/>
      <stop offset="1" stop-color="#00F0FF"/>
    </linearGradient>
    <linearGradient id="x" x1="852.241" x2="1514.7" y1="1137.95" y2="475.487" gradientUnits="userSpaceOnUse">
      <stop stop-color="#FF1CF7"/>
      <stop offset="1" stop-color="#00F0FF"/>
    </linearGradient>
    <linearGradient id="y" x1="818.686" x2="1507.2" y1="1123.46" y2="503.515" gradientUnits="userSpaceOnUse">
      <stop stop-color="#FF1CF7"/>
      <stop offset="1" stop-color="#00F0FF"/>
    </linearGradient>
    <linearGradient id="z" x1="786.39" x2="1498.34" y1="1108.53" y2="532.006" gradientUnits="userSpaceOnUse">
      <stop stop-color="#FF1CF7"/>
      <stop offset="1" stop-color="#00F0FF"/>
    </linearGradient>
    <linearGradient id="A" x1="755.364" x2="1488.12" y1="1093.26" y2="560.879" gradientUnits="userSpaceOnUse">
      <stop stop-color="#FF1CF7"/>
      <stop offset="1" stop-color="#00F0FF"/>
    </linearGradient>
    <linearGradient id="B" x1="725.614" x2="1476.53" y1="1077.7" y2="590.052" gradientUnits="userSpaceOnUse">
      <stop stop-color="#FF1CF7"/>
      <stop offset="1" stop-color="#00F0FF"/>
    </linearGradient>
    <linearGradient id="C" x1="697.14" x2="1463.56" y1="1061.94" y2="619.446" gradientUnits="userSpaceOnUse">
      <stop stop-color="#FF1CF7"/>
      <stop offset="1" stop-color="#00F0FF"/>
    </linearGradient>
    <linearGradient id="D" x1="669.941" x2="1449.23" y1="1046.05" y2="648.981" gradientUnits="userSpaceOnUse">
      <stop stop-color="#FF1CF7"/>
      <stop offset="1" stop-color="#00F0FF"/>
    </linearGradient>
    <linearGradient id="E" x1="644.008" x2="1433.53" y1="1030.1" y2="678.579" gradientUnits="userSpaceOnUse">
      <stop stop-color="#FF1CF7"/>
      <stop offset="1" stop-color="#00F0FF"/>
    </linearGradient>
    <linearGradient id="F" x1="619.332" x2="1416.48" y1="1014.16" y2="708.161" gradientUnits="userSpaceOnUse">
      <stop stop-color="#FF1CF7"/>
      <stop offset="1" stop-color="#00F0FF"/>
    </linearGradient>
    <linearGradient id="G" x1="595.896" x2="1398.1" y1="998.305" y2="737.653" gradientUnits="userSpaceOnUse">
      <stop stop-color="#FF1CF7"/>
      <stop offset="1" stop-color="#00F0FF"/>
    </linearGradient>
    <linearGradient id="H" x1="573.681" x2="1378.41" y1="982.606" y2="766.98" gradientUnits="userSpaceOnUse">
      <stop stop-color="#FF1CF7"/>
      <stop offset="1" stop-color="#00F0FF"/>
    </linearGradient>
    <linearGradient id="I" x1="552.664" x2="1357.42" y1="967.127" y2="796.07" gradientUnits="userSpaceOnUse">
      <stop stop-color="#FF1CF7"/>
      <stop offset="1" stop-color="#00F0FF"/>
    </linearGradient>
    <linearGradient id="J" x1="532.82" x2="1335.18" y1="951.934" y2="824.852" gradientUnits="userSpaceOnUse">
      <stop stop-color="#FF1CF7"/>
      <stop offset="1" stop-color="#00F0FF"/>
    </linearGradient>
    <linearGradient id="K" x1="514.117" x2="1311.71" y1="937.09" y2="853.26" gradientUnits="userSpaceOnUse">
      <stop stop-color="#FF1CF7"/>
      <stop offset="1" stop-color="#00F0FF"/>
    </linearGradient>
    <linearGradient id="L" x1="496.523" x2="1287.05" y1="922.656" y2="881.226" gradientUnits="userSpaceOnUse">
      <stop stop-color="#FF1CF7"/>
      <stop offset="1" stop-color="#00F0FF"/>
    </linearGradient>
    <linearGradient id="M" x1="480" x2="1261.24" y1="908.69" y2="908.69" gradientUnits="userSpaceOnUse">
      <stop stop-color="#FF1CF7"/>
      <stop offset="1" stop-color="#00F0FF"/>
    </linearGradient>
    <linearGradient id="N" x1="464.509" x2="1234.32" y1="895.247" y2="935.591" gradientUnits="userSpaceOnUse">
      <stop stop-color="#FF1CF7"/>
      <stop offset="1" stop-color="#00F0FF"/>
    </linearGradient>
    <linearGradient id="O" x1="450.008" x2="1206.33" y1="882.38" y2="961.873" gradientUnits="userSpaceOnUse">
      <stop stop-color="#FF1CF7"/>
      <stop offset="1" stop-color="#00F0FF"/>
    </linearGradient>
    <linearGradient id="P" x1="436.451" x2="1177.33" y1="870.139" y2="987.482" gradientUnits="userSpaceOnUse">
      <stop stop-color="#FF1CF7"/>
      <stop offset="1" stop-color="#00F0FF"/>
    </linearGradient>
    <linearGradient id="Q" x1="423.79" x2="1147.36" y1="858.569" y2="1012.37" gradientUnits="userSpaceOnUse">
      <stop stop-color="#FF1CF7"/>
      <stop offset="1" stop-color="#00F0FF"/>
    </linearGradient>
    <linearGradient id="R" x1="411.977" x2="1116.49" y1="847.715" y2="1036.49" gradientUnits="userSpaceOnUse">
      <stop stop-color="#FF1CF7"/>
      <stop offset="1" stop-color="#00F0FF"/>
    </linearGradient>
    <linearGradient id="S" x1="400.959" x2="1084.76" y1="837.615" y2="1059.79" gradientUnits="userSpaceOnUse">
      <stop stop-color="#FF1CF7"/>
      <stop offset="1" stop-color="#00F0FF"/>
    </linearGradient>
    <linearGradient id="T" x1="390.682" x2="1052.23" y1="828.307" y2="1082.25" gradientUnits="userSpaceOnUse">
      <stop stop-color="#FF1CF7"/>
      <stop offset="1" stop-color="#00F0FF"/>
    </linearGradient>
    <linearGradient id="U" x1="381.092" x2="1018.96" y1="819.823" y2="1103.82" gradientUnits="userSpaceOnUse">
      <stop stop-color="#FF1CF7"/>
      <stop offset="1" stop-color="#00F0FF"/>
    </linearGradient>
    <linearGradient id="V" x1="372.131" x2="985.021" y1="812.192" y2="1124.47" gradientUnits="userSpaceOnUse">
      <stop stop-color="#FF1CF7"/>
      <stop offset="1" stop-color="#00F0FF"/>
    </linearGradient>
    <linearGradient id="W" x1="363.743" x2="950.464" y1="805.44" y2="1144.18" gradientUnits="userSpaceOnUse">
      <stop stop-color="#FF1CF7"/>
      <stop offset="1" stop-color="#00F0FF"/>
    </linearGradient>
    <linearGradient id="X" x1="355.867" x2="915.355" y1="799.588" y2="1162.92" gradientUnits="userSpaceOnUse">
      <stop stop-color="#FF1CF7"/>
      <stop offset="1" stop-color="#00F0FF"/>
    </linearGradient>
    <linearGradient id="Y" x1="348.446" x2="879.758" y1="794.656" y2="1180.68" gradientUnits="userSpaceOnUse">
      <stop stop-color="#FF1CF7"/>
      <stop offset="1" stop-color="#00F0FF"/>
    </linearGradient>
    <linearGradient id="Z" x1="341.419" x2="843.737" y1="790.656" y2="1197.43" gradientUnits="userSpaceOnUse">
      <stop stop-color="#FF1CF7"/>
      <stop offset="1" stop-color="#00F0FF"/>
    </linearGradient>
    <linearGradient id="aa" x1="334.726" x2="807.357" y1="787.601" y2="1213.16" gradientUnits="userSpaceOnUse">
      <stop stop-color="#FF1CF7"/>
      <stop offset="1" stop-color="#00F0FF"/>
    </linearGradient>
    <linearGradient id="ab" x1="328.307" x2="770.682" y1="785.497" y2="1227.87" gradientUnits="userSpaceOnUse">
      <stop stop-color="#FF1CF7"/>
      <stop offset="1" stop-color="#00F0FF"/>
    </linearGradient>
    <linearGradient id="ac" x1="322.103" x2="733.777" y1="784.347" y2="1241.56" gradientUnits="userSpaceOnUse">
      <stop stop-color="#FF1CF7"/>
      <stop offset="1" stop-color="#00F0FF"/>
    </linearGradient>
    <linearGradient id="ad" x1="316.053" x2="696.705" y1="784.152" y2="1254.22" gradientUnits="userSpaceOnUse">
      <stop stop-color="#FF1CF7"/>
      <stop offset="1" stop-color="#00F0FF"/>
    </linearGradient>
    <linearGradient id="ae" x1="310.1" x2="659.531" y1="784.906" y2="1265.86" gradientUnits="userSpaceOnUse">
      <stop stop-color="#FF1CF7"/>
      <stop offset="1" stop-color="#00F0FF"/>
    </linearGradient>
    <linearGradient id="af" x1="304.184" x2="622.315" y1="786.604" y2="1276.48" gradientUnits="userSpaceOnUse">
      <stop stop-color="#FF1CF7"/>
      <stop offset="1" stop-color="#00F0FF"/>
    </linearGradient>
    <linearGradient id="ag" x1="298.25" x2="585.119" y1="789.234" y2="1286.1" gradientUnits="userSpaceOnUse">
      <stop stop-color="#FF1CF7"/>
      <stop offset="1" stop-color="#00F0FF"/>
    </linearGradient>
    <linearGradient id="ah" x1="292.242" x2="548.003" y1="792.781" y2="1294.74" gradientUnits="userSpaceOnUse">
      <stop stop-color="#FF1CF7"/>
      <stop offset="1" stop-color="#00F0FF"/>
    </linearGradient>
    <linearGradient id="ai" x1="286.105" x2="511.025" y1="797.23" y2="1302.41" gradientUnits="userSpaceOnUse">
      <stop stop-color="#FF1CF7"/>
      <stop offset="1" stop-color="#00F0FF"/>
    </linearGradient>
    <linearGradient id="aj" x1="279.787" x2="474.242" y1="802.558" y2="1309.13" gradientUnits="userSpaceOnUse">
      <stop stop-color="#FF1CF7"/>
      <stop offset="1" stop-color="#00F0FF"/>
    </linearGradient>
    <linearGradient id="ak" x1="273.237" x2="437.708" y1="808.744" y2="1314.93" gradientUnits="userSpaceOnUse">
      <stop stop-color="#FF1CF7"/>
      <stop offset="1" stop-color="#00F0FF"/>
    </linearGradient>
    <linearGradient id="al" x1="266.407" x2="401.475" y1="815.759" y2="1319.84" gradientUnits="userSpaceOnUse">
      <stop stop-color="#FF1CF7"/>
      <stop offset="1" stop-color="#00F0FF"/>
    </linearGradient>
    <linearGradient id="am" x1="259.25" x2="365.594" y1="823.576" y2="1323.89" gradientUnits="userSpaceOnUse">
      <stop stop-color="#FF1CF7"/>
      <stop offset="1" stop-color="#00F0FF"/>
    </linearGradient>
    <linearGradient id="an" x1="251.721" x2="330.112" y1="832.163" y2="1327.11" gradientUnits="userSpaceOnUse">
      <stop stop-color="#FF1CF7"/>
      <stop offset="1" stop-color="#00F0FF"/>
    </linearGradient>
    <linearGradient id="ao" x1="243.779" x2="295.075" y1="841.485" y2="1329.53" gradientUnits="userSpaceOnUse">
      <stop stop-color="#FF1CF7"/>
      <stop offset="1" stop-color="#00F0FF"/>
    </linearGradient>
    <linearGradient id="ap" x1="235.384" x2="260.524" y1="851.507" y2="1331.21" gradientUnits="userSpaceOnUse">
      <stop stop-color="#FF1CF7"/>
      <stop offset="1" stop-color="#00F0FF"/>
    </linearGradient>
    <linearGradient id="aq" x1="226.5" x2="226.5" y1="862.19" y2="1332.18" gradientUnits="userSpaceOnUse">
      <stop stop-color="#FF1CF7"/>
      <stop offset="1" stop-color="#00F0FF"/>
    </linearGradient>
  </defs>
</svg>
