<svg xmlns="http://www.w3.org/2000/svg" xmlns:xlink="http://www.w3.org/1999/xlink" fill="none" viewBox="0 0 9 5">
  <mask id="a" width="9" height="5" x="0" y="0" maskUnits="userSpaceOnUse" style="mask-type:luminance">
    <path fill="#fff" fill-rule="evenodd" d="M0 0h8.5v4.076H0z" clip-rule="evenodd"/>
  </mask>
  <g mask="url(#a)">
    <path fill="url(#b)" fill-rule="evenodd" d="M7.75 4.076a.75.75 0 0 1-.75-.75V2.96c0-.805-.655-1.46-1.46-1.46H2.96c-.805 0-1.46.655-1.46 1.46v.366a.75.75 0 0 1-1.5 0V2.96A2.964 2.964 0 0 1 2.96 0h2.58A2.964 2.964 0 0 1 8.5 2.96v.366a.75.75 0 0 1-.75.75" clip-rule="evenodd"/>
  </g>
  <defs>
    <linearGradient id="b" x1="4.962" x2="1.784" y1="5.772" y2="-.856" gradientUnits="userSpaceOnUse">
      <stop stop-color="#FB432C"/>
      <stop offset="1" stop-color="#FF591E"/>
    </linearGradient>
  </defs>
</svg>
