<svg xmlns="http://www.w3.org/2000/svg" xmlns:xlink="http://www.w3.org/1999/xlink" fill="none" viewBox="0 0 20 11">
  <mask id="a" width="20" height="11" x="0" y="0" maskUnits="userSpaceOnUse" style="mask-type:luminance">
    <path fill="#fff" fill-rule="evenodd" d="M0 0h19.99v10.311H0z" clip-rule="evenodd"/>
  </mask>
  <g mask="url(#a)">
    <path fill="url(#b)" fill-rule="evenodd" d="M1.5 6.813c2.376 1.291 5.372 1.998 8.49 1.998 3.124 0 6.123-.707 8.5-1.998V3.811a2.307 2.307 0 0 0-2.3-2.311H3.81A2.31 2.31 0 0 0 1.5 3.801zm8.49 3.498c-3.545 0-6.962-.858-9.619-2.414A.75.75 0 0 1 0 7.25V3.801A3.81 3.81 0 0 1 3.81 0h12.38c2.096 0 3.8 1.709 3.8 3.811V7.25a.75.75 0 0 1-.371.647c-2.657 1.556-6.077 2.414-9.629 2.414" clip-rule="evenodd"/>
  </g>
  <defs>
    <linearGradient id="b" x1="11.67" x2="3.268" y1="14.603" y2="-1.686" gradientUnits="userSpaceOnUse">
      <stop stop-color="#FB432C"/>
      <stop offset="1" stop-color="#FF591E"/>
    </linearGradient>
  </defs>
</svg>
