<svg xmlns="http://www.w3.org/2000/svg" fill="none" viewBox="0 0 80 80">
  <path fill="#fff" fill-rule="evenodd" d="m14.29 73.044-8.598-10.71A14.38 14.38 0 0 1 2.5 53.325V14.537c0-4.885 3.909-8.94 8.952-9.284L51.33 2.53a13 13 0 0 1 8.157 2.182l14.011 9.473c2.508 1.695 4.002 4.467 4.002 7.426v44.097c0 4.781-3.844 8.74-8.78 9.044l-44.262 2.725c-3.94.242-7.748-1.418-10.168-4.433" clip-rule="evenodd"/>
  <path fill="#000" d="M28.12 33.947v-.508c0-1.287 1.031-2.355 2.36-2.444l9.678-.646 13.385 19.71V32.76l-3.445-.459v-.241c0-1.302 1.054-2.377 2.4-2.446l8.806-.451v1.267c0 .595-.442 1.104-1.049 1.207l-2.119.358v28.014l-2.66.915c-2.221.764-4.695-.054-5.967-1.973L36.515 39.343v18.714l4 .766-.056.37c-.175 1.163-1.178 2.042-2.391 2.096l-9.948.442c-.131-1.25.805-2.367 2.097-2.503l1.309-.137V34.138z"/>
  <path fill="#000" fill-rule="evenodd" d="M51.687 7.417 11.81 10.14c-2.389.163-4.24 2.083-4.24 4.397v38.788c0 2.174.748 4.287 2.127 6.005l8.599 10.712c1.39 1.732 3.578 2.685 5.841 2.546l44.26-2.725c2.27-.14 4.035-1.958 4.035-4.155V21.61c0-1.36-.686-2.633-1.838-3.412L56.58 8.726a7.8 7.8 0 0 0-4.894-1.309zm-37.9 7.726c-.555-.411-.291-1.267.405-1.317l37.764-2.708a5.2 5.2 0 0 1 3.371.934l7.577 5.368c.288.204.153.644-.203.663L22.71 20.258a5.2 5.2 0 0 1-3.367-1.002l-5.557-4.114zm7.047 11.934c0-1.3 1.05-2.373 2.392-2.446l42.282-2.302c1.308-.072 2.409.934 2.409 2.2v38.184c0 1.297-1.046 2.369-2.385 2.445l-42.015 2.39c-1.455.084-2.683-1.035-2.683-2.444z" clip-rule="evenodd"/>
</svg>
