<svg xmlns="http://www.w3.org/2000/svg" fill="none" viewBox="0 0 65 65">
  <path fill="#2EB67D" d="M58.75 30a6.25 6.25 0 1 0-6.25-6.25V30zm-17.5 0a6.25 6.25 0 0 0 6.25-6.25V6.25a6.25 6.25 0 1 0-12.5 0v17.5A6.25 6.25 0 0 0 41.25 30"/>
  <path fill="#E01E5A" d="M6.25 35a6.25 6.25 0 1 0 6.25 6.25V35zm17.5 0a6.25 6.25 0 0 0-6.25 6.25v17.5a6.25 6.25 0 0 0 12.5 0v-17.5A6.25 6.25 0 0 0 23.75 35"/>
  <path fill="#ECB22E" d="M35 58.75a6.25 6.25 0 1 0 6.25-6.25H35zm0-17.5a6.25 6.25 0 0 0 6.25 6.25h17.5a6.25 6.25 0 1 0 0-12.5h-17.5A6.25 6.25 0 0 0 35 41.25"/>
  <path fill="#36C5F0" d="M30 6.25a6.25 6.25 0 1 0-6.25 6.25H30zm0 17.5a6.25 6.25 0 0 0-6.25-6.25H6.25a6.25 6.25 0 1 0 0 12.5h17.5A6.25 6.25 0 0 0 30 23.75"/>
</svg>
