<svg xmlns="http://www.w3.org/2000/svg" xmlns:xlink="http://www.w3.org/1999/xlink" fill="none" viewBox="0 0 80 80">
  <path fill="url(#a)" d="M7.18 15.92C5 20.198 5 25.8 5 37v6c0 11.201 0 16.802 2.18 21.08a20 20 0 0 0 8.74 8.74C20.198 75 25.8 75 37 75h6c11.201 0 16.802 0 21.08-2.18a20 20 0 0 0 8.74-8.74C75 59.802 75 54.2 75 43v-6c0-11.201 0-16.802-2.18-21.08a20 20 0 0 0-8.74-8.74C59.802 5 54.2 5 43 5h-6C25.799 5 20.198 5 15.92 7.18a20 20 0 0 0-8.74 8.74"/>
  <path fill="url(#b)" d="M5.663 20.699C5 24.467 5 29.467 5 36.999v6c0 11.202 0 16.802 2.18 21.08a20 20 0 0 0 8.74 8.741C20.198 75 25.8 75 37 75h6c11.201 0 16.802 0 21.08-2.18a20 20 0 0 0 8.74-8.74C75 59.8 75 54.2 75 43v-6c0-11.201 0-16.802-2.18-21.08a20 20 0 0 0-8.35-8.536z"/>
  <path fill="url(#c)" d="M74.276 59.635c-.322 1.69-.786 3.13-1.456 4.445a20 20 0 0 1-8.74 8.74c-4.15 2.115-9.545 2.178-20.09 2.18h-3.843v-7.908z"/>
  <path fill="url(#d)" d="M43 5h-6c-2.18 0-4.146 0-5.933.016v9.91l33.396-7.545a20 20 0 0 0-.383-.201C61.705 5.97 58.922 5.43 55 5.192 51.857 5 47.983 5 43 5"/>
  <path fill="url(#e)" d="M75 43.433c0 7.514-.014 12.467-.724 16.202l-11.87 2.593V44.54L75 41.61z"/>
  <path fill="#fff" fill-rule="evenodd" d="M37.352 33.445c0-1.607 1.314-2.225 3.49-2.225 3.12 0 7.06.948 10.18 2.637v-9.682c-3.407-1.36-6.773-1.895-10.18-1.895-8.334 0-13.875 4.367-13.875 11.66 0 11.37 15.599 9.557 15.599 14.46 0 1.894-1.642 2.512-3.941 2.512-3.407 0-7.759-1.4-11.207-3.295v9.805c3.818 1.648 7.676 2.348 11.207 2.348 8.538 0 14.408-4.244 14.408-11.618-.04-12.277-15.68-10.093-15.68-14.707z" clip-rule="evenodd"/>
  <defs>
    <linearGradient id="a" x1="5" x2="27.992" y1="5" y2="21.255" gradientUnits="userSpaceOnUse">
      <stop stop-color="#392993"/>
      <stop offset="1" stop-color="#4B47B9"/>
    </linearGradient>
    <linearGradient id="b" x1="7.636" x2="58.392" y1="21.436" y2="63.302" gradientUnits="userSpaceOnUse">
      <stop stop-color="#594BB9"/>
      <stop offset="1" stop-color="#60A8F2"/>
    </linearGradient>
    <linearGradient id="c" x1="40.147" x2="75" y1="67.385" y2="75" gradientUnits="userSpaceOnUse">
      <stop stop-color="#61A2EF"/>
      <stop offset="1" stop-color="#58E6FD"/>
    </linearGradient>
    <linearGradient id="d" x1="31.067" x2="75" y1="9.979" y2="5" gradientUnits="userSpaceOnUse">
      <stop stop-color="#534EBE"/>
      <stop offset="1" stop-color="#6875E2"/>
    </linearGradient>
    <linearGradient id="e" x1="62.406" x2="75" y1="44.686" y2="59.77" gradientUnits="userSpaceOnUse">
      <stop stop-color="#71A5F3"/>
      <stop offset="1" stop-color="#6CC3FA"/>
    </linearGradient>
  </defs>
</svg>
