<svg xmlns="http://www.w3.org/2000/svg" xmlns:xlink="http://www.w3.org/1999/xlink" fill="none" viewBox="0 0 172 180">
  <path fill="url(#a)" fill-rule="evenodd" d="M0 .24C0 .239 0 .238.184.118A3 3 0 0 1 .369 0l.002.004.009.015.035.06q.046.083.138.242.185.322.553.945c.492.827 1.226 2.042 2.2 3.588 1.947 3.093 4.85 7.512 8.67 12.816 7.642 10.607 18.954 24.75 33.636 38.893 29.364 28.287 72.19 56.557 126.071 56.557v.463c-54.028 0-96.952-28.346-126.36-56.676C30.62 42.742 19.29 28.577 11.635 17.953 7.808 12.64 4.9 8.213 2.948 5.113A162 162 0 0 1 .743 1.516 89 89 0 0 1 .046.32L.011.26.002.244zm.02 34.07c0-.002 0-.002.164-.152l.165-.15.002.003.008.01.015.02.02.024.048.059.03.037.06.074q.184.228.553.668c.49.585 1.225 1.444 2.198 2.538 1.947 2.187 4.849 5.313 8.669 9.065 7.64 7.504 18.95 17.51 33.631 27.516 29.362 20.013 72.197 40.024 126.1 40.024v.463c-54.006 0-96.92-20.049-126.331-40.096C30.646 64.39 19.316 54.366 11.66 46.847c-3.827-3.759-6.736-6.892-8.689-9.087a116 116 0 0 1-2.207-2.547 65 65 0 0 1-.697-.846l-.035-.044-.01-.01zm.164 23.467a4 4 0 0 0-.138.178l.002.002.01.008.023.021.012.01.14.125q.186.165.557.482a100 100 0 0 0 2.208 1.827c1.953 1.573 4.862 3.819 8.69 6.514 7.655 5.39 18.986 12.574 33.69 19.757 29.409 14.368 72.314 28.735 126.305 28.735v-.463c-53.918 0-96.763-14.347-126.126-28.693-14.682-7.173-25.993-14.346-33.633-19.724-3.82-2.689-6.721-4.929-8.667-6.496a99 99 0 0 1-2.198-1.82q-.368-.315-.553-.477l-.07-.063-.068-.06-.034-.03-.009-.008-.002-.002-.004.005-.05.064zM.092 83.69l.001-.004.012-.028.172-.386H.28l.008.005.035.018a42 42 0 0 0 .69.341 105 105 0 0 0 2.199 1.034 194 194 0 0 0 8.67 3.695c7.64 3.058 18.954 7.137 33.64 11.216 29.37 8.158 72.227 16.318 126.161 16.318v.463c-53.975 0-96.868-8.166-126.27-16.333-14.7-4.083-26.028-8.167-33.682-11.23a196 196 0 0 1-8.689-3.703A109 109 0 0 1 .28 83.784l-.14-.07-.036-.019-.009-.004-.002-.001zm.092 20.399-.039.223v.005h.002l.009.002.035.007.14.028.058.012.071.014.13.025.296.058q.741.144 2.205.412c1.951.355 4.858.861 8.683 1.469 7.651 1.217 18.975 2.838 33.671 4.459 29.393 3.243 72.275 6.485 126.238 6.485v-.463c-53.947 0-96.814-3.241-126.193-6.483-14.69-1.62-26.008-3.24-33.653-4.456a391 391 0 0 1-8.674-1.468q-1.462-.267-2.2-.411l-.554-.108-.139-.028-.034-.007-.009-.002H.225l-.001.004-.006.029-.006.037zm.002 12.504-.002.232c-.002.232-.001.232 0 .232H.27l.017.001h.13l.027.001h.089l.033.001h.069l.037.001H.79l.043.001h.044l.046.001h.095l.05.001h.05l.053.001h.054l.056.001h.057l.058.001h.12l.063.001h.064l.065.001.067.001h.068l.07.001h.07l.073.001h.074l.075.001.077.001h.078l.08.001.08.001h.082l.084.001.085.001h.087l.087.001.09.001h.09l.093.001.093.001.095.001h.096l.098.001.099.001.1.001.102.001.104.001.104.001h.106l.108.001.108.001.11.001.112.001.113.001.115.001.115.001.118.001.118.001h.12l.121.001.123.002.124.001h.125l.127.002.128.001.13.001.13.001.133.001.134.001.135.001.136.001.138.001.14.001.14.001.142.002.143.001.145.001.146.001.147.001.15.001.15.002.15.001.154.001.154.002.155.001.157.001.159.001.16.002.16.001.163.001.163.002.165.001.167.001.168.001.169.002.17.001.172.002.173.001.175.001.175.002.178.001.178.002.18.001.181.002.183.001.184.002.185.001.187.002.188.001.19.002.19.001.192.002.193.002.195.001.196.002.197.001.199.002.2.001.201.002.203.002.204.001.205.002.207.002.208.001.209.002.21.002.212.001.214.002.214.002.216.002.217.001.219.002.22.002.221.002.223.002.223.001.225.002.227.002.228.002.229.002.23.002.232.002.233.001.234.002.236.002.237.002.238.002.24.002.24.002.243.002.243.002.245.002.246.002.247.002.25.002.25.002.25.002.253.002.254.002.255.002.256.002.258.002.259.002.26.003.262.002.263.002.264.002.266.002.267.002.268.002.27.003.27.002.272.002.273.002.274.002.276.003.277.002.279.002.28.002.28.003.282.002.284.002.284.002.286.003.288.002.288.003.29.002.291.002.293.003.293.002.295.002.296.003.298.002.299.003.3.002.3.002.303.003.304.002.305.003.306.002.308.003.309.002.31.003.311.002.313.003.314.002.315.003.316.003.318.002.319.003.32.002.321.003.323.003.324.002.325.003.326.002.328.003.329.003.33.002.331.003.333.003.333.002.336.003.336.003.338.003.338.002.34.003.341.003.343.003.344.002.345.003.346.003.348.003.348.003.35.002.351.003.353.003.353.003.355.003.356.003.357.003.359.003.36.003.36.002.363.003.363.003.365.003.366.003.367.003.368.003.37.003.37.003.372.003.373.003.375.003.375.003.377.003.378.004.38.003.38.003.381.003.383.003.384.003.386.003.386.003.388.003.388.003.39.004.392.003.392.003.394.003.395.003.396.004.397.003.399.003.4.003.4.004.402.003.404.003.404.003.406.004.406.003.408.003.41.003.41.004.412.003.412.003.414.004.415.003.417.004.417.003.419.003.42.004.421.003.422.004.424.003.424.003.426.004.427.003.428.004.43.003.43.004.431.003.433.004.434.003.435.004.436.003.438.004.439.004.44.003.44.004.443.003.443.004.445.003.445.004.447.004.448.003.45.004.45.004.45.003.453.004.454.004.455.003.456.004.457.004.459.003.46.004.46.004.462.004.463.003.464.004.465.004.467.004.467.003.469.004.47.004.47.004.473.004.473.004.474.003.476.004.477.004.478.004.479.004.48.004.481.004.483.004.483.004.485.003.486.004.486.004.489.004.489.004.49.004.491.004.493.004.494.004.495.004.495.004.497.004.499.004.499.004.5.004.502.004.503.004.504.005.504.004.506.004.508.004.508.004.509.004.511.004.511.004.513.004.514.005.515.004.516.004.517.004.518.004.52.005.52.004.522.004.522.004.524.005.525.004.526.004.527.004.528.004.529.005.531.004.531.004.533.005.534.004.534.004.536.005.537.004.538.004.539.005.541.004.541.005.542.004.544.004.544.005.546.004.547.005.548.004.549.005.55.004.551.004.552.005.553.004.554.005.556.004.556.005.558.004.558.005.56.004.561.005.562.005.563.004.564.005.565.004.566.005.567.004.568.005.57.005.57.004.571.005.573.005.574.004.574.005.576.005.577.004.578.005.579.005.579.004.581.005.583.005.583.004.584.005.585.005.586.005.588.004.588.005.59.005.59.005.592.005.592.004.594.005.595.005.595.005.597.005.598.005.599.004.6.005.601.005.602.005.603.005.604.005.605.005.606.004.607.006.608.004.609.005.611.005.611.005.612.005.614.005.614.005.616.005.616.005.618.005.618.005.62.005.62.005.622.005.622.005.624.005.625.005.625.005.627.005.628.006.628.005.63.005.631.005.632.005.003-.463-.632-.005-.63-.005-.63-.005-.629-.006-.628-.005-.626-.005-.626-.005-.625-.005-.623-.005-.623-.005-.621-.005-.621-.005-.62-.005-.618-.005-.618-.005-.616-.005-.616-.005-.614-.005-.613-.005-.613-.005-.611-.005-.61-.005-.609-.005-.609-.005-.607-.005-.606-.005-.605-.004-.604-.005-.603-.005-.602-.005-.601-.005-.6-.005-.599-.005-.598-.004-.596-.005-.596-.005-.595-.005-.593-.005-.593-.005-.592-.004-.59-.005-.59-.005-.588-.005-.587-.004-.587-.005-.585-.005-.584-.005-.583-.004-.582-.005-.581-.005-.58-.004-.579-.005-.578-.005-.577-.005-.575-.004-.575-.005-.574-.005-.572-.004-.572-.005-.57-.004-.569-.005-.569-.005-.567-.004-.566-.005-.565-.004-.564-.005-.563-.005-.562-.004-.561-.005-.559-.004-.559-.005-.557-.004-.557-.005-.555-.004-.555-.005-.553-.004-.552-.005-.551-.004-.55-.005-.549-.004-.548-.005-.547-.004-.545-.004-.545-.005-.543-.004-.543-.005-.541-.004-.54-.004-.539-.005-.539-.004-.537-.004-.535-.005-.535-.004-.534-.004-.532-.005-.532-.004-.53-.004-.53-.005-.528-.004-.527-.004-.526-.004-.525-.005-.523-.004-.523-.004-.522-.004-.52-.004-.519-.005-.519-.004-.517-.004-.516-.004-.515-.005-.514-.004-.512-.004-.512-.004-.511-.004-.509-.004-.508-.004-.507-.005-.506-.003-.505-.005-.504-.004-.503-.004-.501-.004-.501-.004-.499-.004-.498-.004-.497-.004-.496-.004-.495-.004-.494-.004-.492-.004-.492-.004-.49-.004-.49-.004-.487-.004-.487-.004-.486-.004-.485-.004-.483-.004-.483-.003-.48-.004-.481-.004-.479-.004-.478-.004-.477-.004-.475-.004-.475-.004-.473-.004-.472-.003-.471-.004-.47-.004-.469-.004-.467-.004-.466-.003-.466-.004-.464-.004-.463-.004-.462-.003-.46-.004-.46-.004-.458-.003-.458-.004-.456-.004-.455-.003-.453-.004-.453-.004-.451-.004-.45-.003-.45-.004-.448-.003-.447-.004-.445-.004-.445-.003-.443-.004-.442-.004-.441-.003-.44-.004-.438-.003-.438-.004-.436-.003-.435-.004-.435-.003-.432-.004-.432-.003-.43-.004-.43-.003-.428-.004-.427-.003-.426-.004-.424-.003-.424-.004-.422-.003-.42-.003-.42-.004-.42-.003-.417-.003-.416-.004-.415-.003-.414-.004-.413-.003-.412-.003-.41-.004-.41-.003-.407-.003-.407-.004-.406-.003-.404-.003-.403-.003-.402-.004-.401-.003-.4-.003-.399-.003-.397-.004-.396-.003-.395-.003-.393-.003-.393-.003-.391-.004-.39-.003-.39-.003-.387-.003-.386-.003-.386-.003-.384-.003-.382-.003-.382-.004-.38-.003-.38-.003-.378-.003-.377-.003-.375-.003-.374-.003-.373-.003-.372-.003-.371-.003-.37-.003-.368-.003-.367-.003-.366-.003-.365-.003-.363-.003-.362-.003-.361-.002-.36-.003-.358-.003-.358-.003-.356-.003-.355-.003-.353-.003-.352-.003-.352-.003-.35-.002-.348-.003-.348-.003-.346-.003-.345-.003-.344-.003-.342-.002-.341-.003-.34-.003-.34-.002-.337-.003-.336-.003-.335-.003-.334-.002-.333-.003-.331-.003-.33-.002-.33-.003-.327-.003-.326-.002-.325-.003-.324-.003-.323-.002-.321-.003-.32-.002-.319-.003-.318-.003-.316-.002-.315-.003-.314-.002-.313-.003-.31-.002-.31-.003-.31-.002-.307-.003-.307-.002-.305-.003-.303-.002-.303-.003-.301-.002-.3-.003-.299-.002-.297-.002-.297-.003-.294-.002-.294-.003-.292-.002-.292-.002-.29-.003-.288-.002-.287-.002-.286-.003-.285-.002-.284-.002-.282-.002-.28-.003-.28-.002-.278-.002-.278-.002-.275-.003-.275-.002-.273-.002-.272-.002-.27-.003-.27-.002-.268-.002-.267-.002-.265-.002-.265-.002-.263-.003-.261-.002-.26-.002-.26-.002-.257-.002-.257-.002-.255-.002-.254-.002-.253-.002-.25-.002-.25-.002-.25-.002-.247-.002-.246-.002-.245-.002-.243-.002-.242-.002-.241-.002-.24-.002-.238-.002-.237-.002-.235-.002-.235-.002-.233-.002-.232-.001-.23-.002-.229-.002-.228-.002-.226-.002-.225-.002-.224-.002-.223-.001-.22-.002-.22-.002-.22-.002-.216-.001-.216-.002-.215-.002-.213-.002-.212-.001-.21-.002-.21-.002-.208-.001-.207-.002-.205-.002-.204-.002-.203-.001-.201-.002-.2-.001-.199-.002-.197-.002-.196-.001-.195-.002-.193-.001-.192-.002-.19-.001-.19-.002-.188-.001-.187-.002-.185-.002-.184-.001-.182-.002-.181-.001-.18-.001-.179-.002-.177-.001-.176-.002-.175-.001-.173-.001-.172-.002-.17-.001-.17-.002-.167-.001-.166-.001-.166-.002-.163-.001-.163-.001-.16-.002-.16-.001-.159-.001-.156-.001-.156-.002-.154-.001-.153-.001-.152-.001-.15-.002-.148-.001-.148-.001-.146-.001-.145-.001-.143-.001-.142-.002-.14-.001-.14-.001-.137-.001-.137-.001-.135-.001-.133-.001-.133-.002h-.13l-.13-.002-.128-.001-.127-.001-.126-.001-.124-.001-.122-.001-.122-.001-.12-.001h-.118L5 116.633l-.116-.001-.114-.001-.113-.001-.112-.001-.11-.001-.11-.001-.107-.001-.106-.001-.104-.001h-.103l-.102-.001-.1-.001-.1-.001-.098-.001H3.41l-.095-.001-.093-.001-.092-.001h-.091l-.09-.001-.087-.001h-.087l-.085-.001-.083-.001-.083-.001h-.08l-.08-.001h-.078l-.077-.001-.075-.001H2.06l-.072-.001h-.071l-.07-.001-.068-.001h-.067l-.065-.001h-.064l-.062-.001H1.46l-.06-.001h-.058l-.057-.001h-.109l-.053-.001h-.051l-.05-.001H.973l-.047-.001H.837l-.043-.001H.713l-.038-.001H.569l-.033-.001H.447l-.026-.001H.328l-.02-.001H.197l-.005-.001zm-.002 62.29c-.139-.177-.139-.177-.138-.178l.002-.002.01-.008.001-.002.02-.017.014-.012.026-.024.03-.027.084-.074q.186-.165.557-.482a100 100 0 0 1 2.208-1.827c1.953-1.572 4.862-3.819 8.69-6.513 7.655-5.39 18.986-12.574 33.69-19.758 29.409-14.368 72.314-28.734 126.305-28.734v.463c-53.918 0-96.763 14.347-126.126 28.692-14.682 7.174-25.993 14.346-33.633 19.724-3.82 2.689-6.721 4.929-8.667 6.497a97 97 0 0 0-2.198 1.818q-.368.316-.553.479l-.138.122-.03.026-.004.004-.009.008-.002.002-.01-.013zm-.092-26.144s-.001.001.092.209l.094.209.002-.001.008-.004.035-.018.138-.069.182-.091.142-.07.228-.111c.491-.239 1.225-.589 2.199-1.035a196 196 0 0 1 8.67-3.694c7.64-3.059 18.954-7.137 33.64-11.216 29.37-8.159 72.227-16.318 126.161-16.318v-.463c-53.975 0-96.868 8.165-126.27 16.332-14.7 4.084-26.028 8.167-33.682 11.231a195 195 0 0 0-8.689 3.703 107 107 0 0 0-2.763 1.312l-.09.045-.05.026-.036.017-.009.005zm.092-20.631a5 5 0 0 1-.04-.228h.003l.009-.002.035-.007.14-.028.555-.108q.741-.145 2.205-.412c1.951-.355 4.858-.862 8.683-1.47 7.651-1.216 18.975-2.838 33.671-4.459 29.393-3.243 72.275-6.485 126.238-6.485v.463c-53.947 0-96.814 3.242-126.193 6.483-14.69 1.62-26.008 3.241-33.653 4.456a397 397 0 0 0-8.674 1.468c-.974.177-1.709.317-2.2.411l-.379.074-.175.035-.139.027-.034.007-.009.002H.225z" clip-rule="evenodd"/>
  <defs>
    <linearGradient id="a" x1="169.095" x2="3.329" y1="87.182" y2="87.182" gradientUnits="userSpaceOnUse">
      <stop offset=".018" stop-color="#FD4B28" stop-opacity="0"/>
      <stop offset=".128" stop-color="#FD4B28"/>
      <stop offset=".563" stop-color="#FD4C28" stop-opacity=".65"/>
      <stop offset=".943" stop-color="#FD4C28" stop-opacity="0"/>
    </linearGradient>
  </defs>
</svg>
