<svg xmlns="http://www.w3.org/2000/svg" xmlns:xlink="http://www.w3.org/1999/xlink" fill="none" viewBox="0 0 721 701">
  <path fill="url(#a)" fill-rule="evenodd" d="M0 .937C-.002.933-.003.931.772.463c.776-.467.777-.466.779-.462l.009.014.035.059.145.238q.194.318.582.945A352 352 0 0 0 4.645 4.95a623 623 0 0 0 9.234 14.035C22.054 31.082 34.24 48.366 50.28 69.11c32.081 41.487 79.572 96.804 141.208 152.12 123.28 110.638 303.073 221.208 529.282 221.208v1.811c-226.824 0-407.03-110.87-530.491-221.672-61.735-55.404-109.3-110.807-141.431-152.36-16.066-20.776-28.276-38.092-36.47-50.216a625 625 0 0 1-9.26-14.077A344 344 0 0 1 .194 1.257l-.148-.243L.01.952zm.086 133.254c-.002-.003-.003-.004.686-.592.69-.587.69-.586.692-.584l.009.01.036.042.063.073.081.094.2.232.126.145.254.291c.517.589 1.291 1.466 2.321 2.611a465 465 0 0 0 9.23 9.926c8.171 8.555 20.355 20.782 36.392 35.456 32.074 29.348 79.56 68.486 141.193 107.623 123.267 78.276 303.1 156.542 529.401 156.542v1.812c-226.732 0-406.898-78.417-530.372-156.825-61.737-39.203-109.307-78.409-141.445-107.816-16.07-14.704-28.282-26.959-36.48-35.541a465 465 0 0 1-9.265-9.965 265 265 0 0 1-2.926-3.307l-.148-.172-.038-.044zm.686 91.788c-.583.693-.581.695-.579.696l.01.009.037.031.098.082.051.041a239 239 0 0 0 2.928 2.372 406 406 0 0 0 9.268 7.144c8.199 6.153 20.412 14.938 36.483 25.477 32.14 21.08 79.708 49.18 141.441 77.277 123.465 56.196 303.592 112.386 530.261 112.386v-1.811c-226.364 0-406.236-56.114-529.511-112.223-61.638-28.055-109.125-56.108-141.198-77.143-16.036-10.518-28.219-19.28-36.39-25.411a407 407 0 0 1-9.226-7.113c-1.03-.82-1.803-1.448-2.32-1.87l-.296-.244-.283-.234-.144-.12-.035-.03-.01-.007-.018.02-.04.046-.173.206zm-.387 101.35v-.002l.005-.014.052-.109c.05-.109.148-.313.33-.694l.327-.682.05-.103.015-.029.002-.002.008.004.036.018.144.068.58.271c.516.24 1.29.598 2.32 1.065a475 475 0 0 0 9.23 4.044c8.172 3.487 20.357 8.47 36.397 14.45 32.079 11.963 79.577 27.916 141.23 43.87 123.305 31.908 303.228 63.822 529.659 63.822v1.811c-226.602 0-406.678-31.937-530.113-63.88-61.718-15.97-109.275-31.943-141.41-43.925-16.066-5.991-28.277-10.984-36.474-14.481a476 476 0 0 1-9.265-4.061 238 238 0 0 1-2.927-1.348l-.148-.071-.038-.018zm.387 79.787a76 76 0 0 0-.163.872l-.002.018.01.002.036.007.148.028.586.109.244.045.3.056.544.098 1.246.226a944 944 0 0 0 9.256 1.611c8.19 1.388 20.395 3.37 36.454 5.748 32.12 4.757 79.661 11.099 141.36 17.44C314.19 446.059 494.22 458.74 720.77 458.74v-1.811c-226.483 0-406.451-12.678-529.793-25.355-61.672-6.338-109.186-12.676-141.28-17.429-16.047-2.377-28.239-4.356-36.417-5.743a943 943 0 0 1-9.239-1.608 405 405 0 0 1-2.324-.423l-.583-.108-.145-.027-.036-.008-.009-.001-.005.017-.022.114-.028.143zm.01 48.907c-.002 0-.003 0-.01.906-.006.905-.005.905-.003.905h.024l.021.001h.101l.046.001h.052l.057.001h.064l.07.001h.077l.082.001.088.001.094.001h.1l.107.001h.112l.119.001.124.001.13.001.137.002.143.001.149.001.154.001.16.001.168.001.172.001.179.002.185.001.19.002.197.002.203.001.208.001.215.002.22.002.227.002.233.002.238.001.245.002.25.002.257.002.262.002.268.001.275.002.28.003.286.002.292.003.298.001.304.003.31.002.316.003.321.002.328.002.334.003.34.003.345.002.35.003.358.003.363.002.369.003.375.003.38.003.387.002.393.004.398.003.404.002.41.004.416.003.422.003.428.003.433.004.44.003.445.003.45.004.458.003.462.004.469.003.474.003.48.004.486.004.492.004.498.004.503.003.51.004.514.004.521.004.527.004.532.004.538.004.544.004.55.004.555.004.562.005.567.004.573.004.578.005.584.004.59.005.596.004.602.005.607.004.613.005.62.004.623.005.63.004.637.006.641.004.648.006.653.004.659.005.664.005.67.006.677.004.681.006.687.005.693.005.7.005.703.006.71.005.716.005.721.006.728.005.732.006.739.005.744.006.75.006.755.005.76.006.767.006.772.006.778.006.784.005.789.007.795.005.8.006.806.007.812.006.817.006.823.006.828.006.834.007.84.006.845.006.85.007.857.006.862.007.868.006.873.007.878.006.884.007.89.007.896.007.9.006.907.008.912.006.917.007.924.007.928.007.934.007.94.007.945.007.95.008.957.007.962.007.967.007.973.008.978.007.984.007.989.007.995.009 1 .007 1.006.007 1.011.008 1.016.007 1.023.009 1.028.007 1.032.008 1.039.008 1.044.007 1.05.009 1.054.008 1.06.008 1.066.008 1.072.008 1.077.008 1.082.008 1.087.009 1.093.008 1.098.008 1.104.008 1.11.008 1.114.009 1.12.008 1.126.009 1.131.009 1.136.008 1.142.009 1.146.008 1.153.009 1.158.009 1.163.008 1.169.009 1.173.009 1.18.009 1.184.01 1.19.008 1.196.009 1.201.009 1.206.009 1.211.01 1.217.009 1.222.009 1.228.009 1.232.009 1.238.01 1.244.009 1.249.009 1.254.01 1.259.009 1.265.01 1.27.01 1.275.009 1.281.01 1.286.01 1.291.009 1.297.01 1.301.01 1.307.01 1.313.01 1.317.01 1.324.01 1.327.01 1.334.01 1.339.01 1.344.01 1.349.011 1.354.01 1.361.01 1.364.01 1.371.01 1.374.01 1.382.011 1.385.01 1.391.011 1.397.011 1.401.01 1.407.011 1.412.011 1.418.01 1.421.011 1.428.01 1.432.011 1.439.011 1.443.011 1.448.011 1.454.012 1.459.01 1.464.011 1.469.011 1.474.011 1.479.012 1.484.011 1.49.011 1.495.011 1.5.012 1.505.011 1.511.012 1.515.011 1.521.011 1.525.012 1.531.011 1.535.012 1.542.012 1.546.011 1.551.012 1.557.012 1.561.012 1.567.011 1.571.012 1.577.012 1.582.012 1.587.012 1.592.012 1.597.012 1.602.012 1.607.012 1.613.012 1.617.013 1.623.012 1.627.012 1.632.012 1.639.013 1.642.012 1.648.013 1.653.012 1.657.013 1.663.012 1.668.013 1.673.013 1.678.012 1.683.013 1.688.013 1.693.012 1.698.013 1.702.013 1.709.013 1.712.013 1.718.013 1.724.013 1.728.013 1.732.013 1.738.013 1.743.013 1.747.013 1.754.014 1.757.013 1.763.013 1.768.014 1.772.013 1.778.013 1.782.014 1.788.013 1.793.014 1.796.013 1.803.014 1.807.014 1.813.013 1.816.014 1.822.013 1.827.015 1.831.013 1.837.014 1.842.015 1.847.013 1.851.014 1.857.014 1.861.014 1.865.014 1.871.014 1.876.014 1.881.015 1.886.013 1.89.015 1.895.014 1.9.015 1.905.014 1.91.015 1.915.014 1.92.015 1.924.014 1.929.015 1.934.014 1.939.015 1.943.014 1.949.015 1.954.015 1.958.015 1.962.014 1.968.016 1.973.014 1.977.015 1.982.015 1.987.015 1.992.015 1.997.015 2.001.016 2.006.014 2.011.016 2.016.015 2.021.015 2.025.016 2.029.015 2.035.016 2.04.015 2.044.015 2.049.016 2.053.015 2.059.015 2.063.016 2.069.015 2.072.017 2.077.015 2.082.015 2.087.017 2.092.015 2.096.016 2.101.016 2.106.016 2.11.015 2.115.017 2.12.016 2.124.015 2.13.017 2.133.016 2.138.016 2.143.016 2.148.016 2.153.016 2.158.017 2.161.016 2.167.016 2.17.017 2.176.016 2.181.017 2.185.016 2.19.017 2.193.016 2.2.017 2.204.017 2.208.017 2.212.016 2.218.016 2.222.018 2.227.016 2.231.017 2.236.017 2.24.017 2.245.017 2.25.017 2.254.017 2.259.016 2.264.018 2.268.017 2.272.017 2.278.017 2.281.018 2.286.017 2.291.017 2.295.017 2.301.018 2.304.017 2.309.018 2.314.017 2.317.018 2.323.017 2.327.017 2.332.019 2.337.017 2.34.018 2.346.017 2.349.018 2.355.018 2.358.018 2.364.018 2.367.018 2.373.017 2.376.018 2.381.018 2.387.018 2.39.018 2.394.019 2.399.018 2.404.018 2.408.018 2.413.018 2.417.018 2.421.018 2.426.019 2.431.018 2.434.018 2.439.019 2.445.019 2.448.018 2.452.019 2.457.018 2.461.019 2.466.018 2.471.019 2.474.018 2.479.019 2.484.019 2.488.018 2.491.019 2.497.019 2.501.019 2.506.019 2.509.019 2.514.019 2.519.019 2.523.019 2.528.019 2.531.019 2.536.019 2.54.019 2.545.019 2.55.02 2.553.019 2.557.019 2.562.019 2.567.02 2.57.019 2.576.02 2.579.019 2.584.02 2.587.019 2.593.02 2.597.02 2.601.019 2.605.02 2.61.02 2.613.019 2.619.02 2.622.02 2.627.02 2.631.02 2.635.02 2.639.02 2.645.02 2.648.019 2.652.02.013-1.811-2.651-.02-2.649-.02-2.644-.02-2.639-.02-2.636-.02-2.631-.02-2.626-.019-2.623-.02-2.618-.019-2.614-.02-2.609-.02-2.605-.02-2.602-.019-2.596-.02-2.593-.02-2.587-.019-2.584-.02-2.58-.019-2.575-.02-2.57-.019-2.567-.019-2.562-.02-2.558-.019-2.553-.019-2.549-.02-2.545-.019-2.541-.019-2.535-.019-2.532-.019-2.527-.019-2.524-.019-2.518-.019-2.514-.019-2.51-.019-2.505-.019-2.501-.019-2.497-.019-2.492-.019-2.488-.018-2.483-.019-2.48-.019-2.474-.018-2.47-.019-2.466-.019-2.461-.019-2.457-.018-2.453-.019-2.448-.018-2.444-.019-2.439-.018-2.434-.018-2.431-.018-2.426-.019-2.421-.018-2.418-.018-2.412-.019-2.408-.018-2.404-.018-2.399-.018-2.395-.018-2.39-.018-2.386-.018-2.381-.018-2.376-.018-2.373-.018-2.368-.018-2.363-.018-2.359-.017-2.354-.018-2.35-.018-2.345-.018-2.341-.018-2.336-.017-2.331-.018-2.328-.017-2.323-.017-2.317-.018-2.314-.018-2.309-.017-2.305-.017-2.299-.018-2.296-.017-2.291-.018-2.286-.017-2.282-.017-2.277-.017-2.273-.017-2.268-.018-2.263-.016-2.259-.017-2.255-.017-2.249-.018-2.245-.017-2.24-.016-2.236-.017-2.232-.017-2.227-.017-2.221-.017-2.218-.016-2.213-.017-2.208-.017-2.203-.016-2.199-.017-2.194-.017-2.19-.016-2.186-.016-2.18-.017-2.176-.017-2.171-.016-2.166-.016-2.162-.017-2.157-.016-2.153-.016-2.147-.017-2.144-.015-2.138-.016-2.134-.017-2.129-.016-2.125-.015-2.119-.017-2.116-.016-2.11-.015-2.105-.017-2.102-.015-2.095-.016-2.092-.016-2.087-.016-2.082-.015-2.078-.016-2.072-.016-2.068-.015-2.063-.016-2.059-.015-2.053-.016-2.05-.015-2.044-.015-2.039-.016-2.035-.015-2.03-.016-2.025-.015-2.02-.015-2.016-.016-2.011-.015-2.006-.015-2.001-.015-1.997-.016-1.992-.014-1.987-.015-1.982-.015-1.978-.015-1.972-.015-1.968-.015-1.963-.015-1.958-.014-1.953-.016-1.949-.014-1.944-.015-1.939-.014-1.933-.015-1.929-.014-1.925-.014-1.92-.015-1.914-.014-1.91-.015-1.905-.014-1.9-.015-1.896-.014-1.89-.014-1.885-.015-1.881-.014-1.876-.014-1.871-.014-1.866-.015-1.861-.013-1.856-.015-1.852-.013-1.846-.014-1.841-.014-1.837-.014-1.832-.014-1.827-.014-1.822-.014-1.817-.013-1.812-.014-1.808-.013-1.802-.014-1.797-.013-1.792-.014-1.788-.014-1.782-.013-1.778-.014-1.772-.013-1.768-.013-1.763-.014-1.758-.012-1.753-.014-1.748-.014-1.742-.012-1.738-.014-1.733-.012-1.728-.013-1.723-.014-1.718-.012-1.713-.013-1.708-.014-1.703-.012-1.698-.013-1.692-.013-1.689-.012-1.682-.013-1.678-.013-1.673-.012-1.668-.013-1.663-.013-1.658-.012-1.652-.012-1.648-.013-1.643-.013-1.637-.011-1.633-.013-1.627-.013-1.623-.012-1.618-.012-1.612-.012-1.607-.012-1.603-.012-1.596-.012-1.592-.012-1.587-.013-1.582-.011-1.577-.012-1.571-.012-1.567-.012-1.561-.012-1.557-.011-1.552-.012-1.546-.012-1.54-.012-1.536-.011-1.532-.011-1.525-.012-1.52-.012-1.516-.011-1.51-.011-1.505-.011-1.5-.012-1.495-.011-1.49-.012-1.485-.011-1.479-.01-1.474-.012-1.469-.011-1.463-.011-1.459-.011-1.454-.011-1.448-.011-1.444-.011-1.437-.011-1.433-.011-1.428-.01-1.422-.011-1.417-.011-1.412-.011-1.407-.011-1.402-.01-1.396-.01-1.391-.01-1.386-.011-1.381-.011-1.375-.01-1.37-.01-1.365-.011-1.36-.01-1.354-.01-1.35-.011-1.344-.01-1.338-.01-1.333-.01-1.329-.01-1.323-.009-1.318-.01-1.312-.01-1.307-.01-1.301-.01-1.297-.01-1.292-.009-1.286-.01-1.28-.01-1.276-.009-1.269-.01-1.265-.01-1.259-.009-1.255-.009-1.249-.01-1.243-.009-1.238-.01-1.233-.009-1.227-.009-1.222-.01-1.217-.009-1.212-.01-1.206-.009-1.201-.009-1.195-.009-1.19-.008-1.185-.009-1.179-.009-1.174-.009-1.168-.009-1.164-.008-1.157-.009-1.153-.009-1.147-.009-1.142-.009-1.135-.008-1.132-.009-1.125-.008-1.12-.008-1.115-.009-1.109-.008-1.104-.008-1.099-.009-1.092-.008-1.088-.008-1.082-.008-1.077-.008-1.071-.008-1.066-.008-1.06-.009-1.055-.008-1.05-.008-1.044-.007-1.038-.008-1.033-.008-1.028-.008-1.022-.008-1.016-.007-1.012-.007-1.005-.009-1-.007-.995-.007-.99-.008-.983-.007-.979-.008-.972-.007-.968-.007-.961-.007-.957-.008-.95-.007-.945-.007-.94-.007-.934-.008-.929-.006-.923-.007-.917-.007-.912-.007-.907-.007-.9-.006-.896-.008-.89-.006-.884-.007-.879-.007-.873-.006-.867-.006-.862-.007-.857-.007-.85-.006-.846-.006-.84-.007-.833-.006-.828-.007-.823-.006-.818-.005-.811-.007-.806-.006-.8-.006-.795-.006-.79-.006-.783-.006-.778-.006-.772-.005-.767-.007-.76-.005-.756-.005-.75-.006-.744-.006-.738-.006-.733-.005-.727-.006-.721-.005-.716-.005-.71-.006-.704-.005-.699-.006-.693-.004-.687-.006-.682-.005-.676-.005-.67-.005-.665-.006-.658-.004-.654-.005-.647-.005-.642-.005-.636-.004-.63-.006-.624-.004-.62-.005-.612-.004-.608-.005-.601-.004-.596-.005-.59-.004-.584-.005-.579-.004-.573-.005-.567-.003-.56-.005-.556-.004-.55-.004-.544-.005-.538-.003-.533-.005-.526-.003-.521-.004-.515-.005-.51-.003-.503-.004-.497-.003-.492-.004-.486-.004-.48-.003-.475-.004-.468-.004-.463-.003-.457-.004-.45-.003-.446-.003-.44-.004-.433-.003-.428-.003-.421-.004-.416-.002-.41-.004-.405-.003-.398-.002-.392-.004-.387-.003-.38-.003-.375-.002-.37-.003-.362-.003-.358-.002-.35-.003-.346-.003-.34-.003-.333-.002-.328-.002-.322-.003-.315-.003-.31-.001-.304-.003-.298-.002-.292-.003-.287-.001-.28-.002-.274-.003-.268-.002-.263-.002-.256-.001-.25-.002-.245-.002-.239-.002-.232-.002-.227-.001-.22-.002-.215-.002-.209-.002-.202-.001-.197-.002h-.19l-.185-.002-.18-.002-.172-.001-.166-.001-.161-.002-.155-.001-.148-.001h-.143l-.137-.002-.13-.001-.125-.001-.118-.001-.112-.001h-.107l-.1-.001-.094-.001-.089-.001h-.158l-.07-.001h-.064l-.058-.001H.974l-.045-.001H.828l-.021-.001zm-.01 243.629c-.583-.693-.581-.694-.579-.695l.01-.009.037-.031.01-.008.08-.067.06-.049.11-.093.126-.104.352-.289c.522-.427 1.303-1.06 2.339-1.885a405 405 0 0 1 9.268-7.145c8.199-6.153 20.412-14.938 36.483-25.477 32.14-21.08 79.708-49.179 141.441-77.277 123.465-56.196 303.592-112.386 530.261-112.386v1.811c-226.364 0-406.236 56.114-529.511 112.223-61.638 28.056-109.125 56.108-141.198 77.143-16.036 10.518-28.219 19.28-36.39 25.412a408 408 0 0 0-9.226 7.112 255 255 0 0 0-2.32 1.87l-.579.478-.123.103-.021.017-.035.03-.01.007-.044-.05-.54-.641zM.385 597.397c-.002.001-.003.001.387.818.391.817.392.817.394.816l.008-.004.036-.016.144-.069.58-.272.766-.354.596-.274q.435-.199.959-.435a466 466 0 0 1 9.229-4.046c8.172-3.486 20.357-8.469 36.397-14.45 32.079-11.962 79.577-27.915 141.23-43.87 123.305-31.908 303.228-63.821 529.659-63.821v-1.812c-226.602 0-406.678 31.937-530.113 63.88-61.718 15.971-109.275 31.943-141.41 43.926-16.066 5.991-28.277 10.984-36.474 14.482a452 452 0 0 0-9.265 4.061 226 226 0 0 0-2.338 1.071l-.38.178-.209.098-.148.07-.038.018zm.387-80.693c-.169-.89-.168-.89-.165-.89l.01-.002.036-.008.148-.027.586-.109q.781-.145 2.334-.425a917 917 0 0 1 9.256-1.611c8.19-1.388 20.395-3.37 36.454-5.749 32.12-4.756 79.661-11.098 141.36-17.44C314.19 477.761 494.22 465.08 720.77 465.08v1.811c-226.483 0-406.451 12.678-529.793 25.355-61.672 6.338-109.186 12.676-141.28 17.429-16.047 2.376-28.239 4.357-36.417 5.743-4.09.693-7.176 1.237-9.239 1.607l-1.588.288-.736.136-.583.108-.145.028-.036.006-.009.002c-.002 0-.003.001-.172-.889" clip-rule="evenodd"/>
  <defs>
    <linearGradient id="a" x1="709.903" x2="13.977" y1="340.987" y2="340.987" gradientUnits="userSpaceOnUse">
      <stop offset=".018" stop-color="#FD4B28" stop-opacity="0"/>
      <stop offset=".128" stop-color="#FD4B28"/>
      <stop offset=".563" stop-color="#FD4C28" stop-opacity=".65"/>
      <stop offset=".943" stop-color="#FD4C28" stop-opacity="0"/>
    </linearGradient>
  </defs>
</svg>
