<svg xmlns="http://www.w3.org/2000/svg" xmlns:xlink="http://www.w3.org/1999/xlink" fill="none" viewBox="0 0 20 7">
  <path fill="url(#a)" fill-rule="evenodd" d="M15.771 7.006h-11.6A4.01 4.01 0 0 1 .192 3.315L.002.805A.75.75 0 0 1 .694.002c.415-.015.773.278.805.692L1.69 3.2a2.503 2.503 0 0 0 2.48 2.306h11.6A2.5 2.5 0 0 0 18.254 3.2l.19-2.508c.032-.414.4-.708.805-.692a.75.75 0 0 1 .691.805l-.19 2.509a4.01 4.01 0 0 1-3.979 3.69" clip-rule="evenodd"/>
  <defs>
    <linearGradient id="a" x1="11.642" x2="7.261" y1="9.921" y2="-2.551" gradientUnits="userSpaceOnUse">
      <stop stop-color="#FB432C"/>
      <stop offset="1" stop-color="#FF591E"/>
    </linearGradient>
  </defs>
</svg>
