<svg xmlns="http://www.w3.org/2000/svg" xmlns:xlink="http://www.w3.org/1999/xlink" fill="none" viewBox="0 0 80 80">
  <path fill="#BFC8D0" fill-rule="evenodd" d="M40 77.5c19.33 0 35-15.67 35-35s-15.67-35-35-35-35 15.67-35 35a34.84 34.84 0 0 0 4.546 17.262L5 77.5l18.287-4.24A34.84 34.84 0 0 0 40 77.5m0-5.385c16.356 0 29.615-13.259 29.615-29.615S56.356 12.885 40 12.885 10.385 26.144 10.385 42.5a29.5 29.5 0 0 0 5.345 16.975l-2.653 9.948 10.123-2.53A29.5 29.5 0 0 0 40 72.114z" clip-rule="evenodd"/>
  <path fill="url(#a)" d="M70 40c0 16.569-13.431 30-30 30a29.86 29.86 0 0 1-17.018-5.29l-10.255 2.563 2.687-10.077A29.86 29.86 0 0 1 10 40c0-16.569 13.431-30 30-30s30 13.431 30 30"/>
  <path fill="#fff" fill-rule="evenodd" d="M40 75c19.33 0 35-15.67 35-35S59.33 5 40 5 5 20.67 5 40a34.84 34.84 0 0 0 4.546 17.262L5 75l18.287-4.24A34.84 34.84 0 0 0 40 75m0-5.385c16.356 0 29.615-13.259 29.615-29.615S56.356 10.385 40 10.385 10.385 23.644 10.385 40a29.5 29.5 0 0 0 5.345 16.975l-2.653 9.948 10.123-2.53A29.5 29.5 0 0 0 40 69.614z" clip-rule="evenodd"/>
  <path fill="#fff" d="M31.25 23.75c-.832-1.671-2.109-1.523-3.398-1.523-2.305 0-5.899 2.76-5.899 7.898 0 4.211 1.856 8.82 8.108 15.716 6.034 6.654 13.962 10.096 20.544 9.98 6.583-.118 7.937-5.782 7.937-7.695 0-.848-.526-1.27-.889-1.386-2.243-1.076-6.38-3.082-7.32-3.459-.942-.377-1.434.133-1.74.41-.853.814-2.545 3.211-3.124 3.75s-1.443.267-1.803.063c-1.322-.53-4.909-2.126-7.767-4.897-3.536-3.427-3.743-4.606-4.41-5.656-.532-.84-.141-1.355.054-1.58a45 45 0 0 0 2.285-2.91c.472-.674.097-1.698-.127-2.336-.967-2.742-1.785-5.038-2.45-6.375z"/>
  <defs>
    <linearGradient id="a" x1="66.25" x2="10" y1="17.5" y2="70" gradientUnits="userSpaceOnUse">
      <stop stop-color="#5BD066"/>
      <stop offset="1" stop-color="#27B43E"/>
    </linearGradient>
  </defs>
</svg>
